<svg width="31" height="31" viewBox="0 0 31 31" fill="none" xmlns="http://www.w3.org/2000/svg">
<path d="M5.81283 21.3129C3.87533 22.9404 3.22949 27.7712 3.22949 27.7712C3.22949 27.7712 8.06033 27.1254 9.68783 25.1879C10.6049 24.1029 10.592 22.4367 9.57158 21.4292C9.06951 20.95 8.40816 20.6731 7.71445 20.6516C7.02074 20.6302 6.34354 20.8657 5.81283 21.3129Z" stroke="white" stroke-width="2.47031" stroke-linecap="round" stroke-linejoin="round"/>
<path d="M15.5004 19.3753L11.6254 15.5003C12.3127 13.7171 13.1782 12.0077 14.2087 10.3982C15.7137 7.99182 17.8094 6.01049 20.2963 4.64267C22.7833 3.27485 25.5788 2.56603 28.417 2.58363C28.417 6.09697 27.4095 12.2711 20.667 16.792C19.0355 17.8236 17.3046 18.6891 15.5004 19.3753Z" stroke="white" stroke-width="2.47031" stroke-linecap="round" stroke-linejoin="round"/>
<path d="M11.6253 15.4994H5.16699C5.16699 15.4994 5.87741 11.5856 7.75033 10.3327C9.84283 8.93771 14.2087 10.3327 14.2087 10.3327" stroke="white" stroke-width="2.47031" stroke-linecap="round" stroke-linejoin="round"/>
<path d="M15.5002 19.375V25.8334C15.5002 25.8334 19.414 25.1229 20.6669 23.25C22.0619 21.1575 20.6669 16.7917 20.6669 16.7917" stroke="white" stroke-width="2.47031" stroke-linecap="round" stroke-linejoin="round"/>
</svg>
