<svg width="33" height="37" viewBox="0 0 33 37" fill="none" xmlns="http://www.w3.org/2000/svg">
<path d="M3.65249 21.7938C3.34084 21.7948 3.03529 21.7074 2.77134 21.5418C2.50738 21.3761 2.29585 21.1389 2.16133 20.8578C2.0268 20.5767 1.97481 20.2631 2.01138 19.9536C2.04795 19.6441 2.17159 19.3514 2.36793 19.1094L18.672 2.31124C18.7943 2.17007 18.961 2.07467 19.1446 2.04071C19.3283 2.00674 19.518 2.03623 19.6827 2.12432C19.8474 2.21242 19.9773 2.35388 20.051 2.52551C20.1247 2.69713 20.1378 2.88871 20.0883 3.0688L16.9263 12.983C16.8331 13.2325 16.8018 13.501 16.8351 13.7653C16.8684 14.0296 16.9653 14.2818 17.1175 14.5005C17.2697 14.7191 17.4727 14.8975 17.709 15.0204C17.9454 15.1434 18.208 15.2071 18.4744 15.2063H30.0025C30.3141 15.2052 30.6197 15.2926 30.8836 15.4583C31.1476 15.624 31.3591 15.8611 31.4937 16.1423C31.6282 16.4234 31.6802 16.7369 31.6436 17.0464C31.607 17.3559 31.4834 17.6487 31.2871 17.8907L14.983 34.6888C14.8607 34.83 14.694 34.9254 14.5104 34.9593C14.3267 34.9933 14.137 34.9638 13.9723 34.8757C13.8076 34.7876 13.6777 34.6461 13.604 34.4745C13.5303 34.3029 13.5171 34.1113 13.5667 33.9312L16.7287 24.017C16.8219 23.7675 16.8532 23.4991 16.8199 23.2348C16.7866 22.9705 16.6897 22.7182 16.5375 22.4996C16.3853 22.281 16.1823 22.1025 15.946 21.9796C15.7096 21.8567 15.447 21.7929 15.1806 21.7938H3.65249Z" stroke="white" stroke-width="2.47031" stroke-linecap="round" stroke-linejoin="round"/>
</svg>
