<svg width="40" height="40" viewBox="0 0 40 40" fill="none" xmlns="http://www.w3.org/2000/svg">
<path d="M32.9374 21.4101C32.9374 29.6445 27.1733 33.7617 20.3223 36.1497C19.9636 36.2712 19.5739 36.2654 19.2189 36.1332C12.3515 33.7617 6.5874 29.6445 6.5874 21.4101V9.882C6.5874 9.44522 6.76091 9.02634 7.06976 8.71749C7.37861 8.40864 7.7975 8.23513 8.23428 8.23513C11.528 8.23513 15.6452 6.25888 18.5108 3.75563C18.8597 3.45754 19.3035 3.29376 19.7624 3.29376C20.2213 3.29376 20.6651 3.45754 21.014 3.75563C23.8961 6.27535 27.9968 8.23513 31.2905 8.23513C31.7273 8.23513 32.1462 8.40864 32.455 8.71749C32.7639 9.02634 32.9374 9.44522 32.9374 9.882V21.4101Z" stroke="white" stroke-width="2.47031" stroke-linecap="round" stroke-linejoin="round"/>
</svg>
