<svg width="16" height="15" viewBox="0 0 16 15" fill="none" xmlns="http://www.w3.org/2000/svg">
<path d="M15.0776 1.66277C14.6048 1.14388 13.943 0.83533 13.2356 0.803978L5.07112 0.407783C4.71592 0.392019 4.36653 0.517313 4.09926 0.7563C3.83199 0.995287 3.66855 1.32855 3.64465 1.68329C3.63251 1.86055 3.65561 2.03785 3.71263 2.20499C3.76965 2.37212 3.85945 2.52577 3.97686 2.65708C4.09427 2.78839 4.23696 2.89475 4.3967 2.97003C4.55644 3.04531 4.73008 3.08802 4.90758 3.0957L11.1532 3.38197L1.03637 12.4281C0.768053 12.6681 0.604431 13.0029 0.581496 13.3591C0.558561 13.7153 0.678192 14.0636 0.914072 14.3274C1.14995 14.5912 1.48276 14.7489 1.83928 14.7658C2.1958 14.7827 2.54683 14.6574 2.81514 14.4174L12.932 5.37127L12.5296 11.6199C12.5054 11.9762 12.6239 12.3251 12.8589 12.5899C13.094 12.8547 13.4264 13.0137 13.7831 13.0318C14.1397 13.05 14.4913 12.9258 14.7606 12.6867C15.0299 12.4476 15.1948 12.1131 15.219 11.7568L15.7348 3.59895C15.7827 2.88783 15.5464 2.19153 15.0776 1.66277Z" fill="#3B8C2C"/>
</svg>
