<svg width="31" height="32" viewBox="0 0 31 32" fill="none" xmlns="http://www.w3.org/2000/svg">
<g clip-path="url(#clip0_1515_5576)">
<path d="M18.0833 6.9584C18.0833 6.2454 18.6607 5.66673 19.375 5.66673H23.25V1.79173C23.25 1.07873 23.8274 0.500061 24.5417 0.500061C25.256 0.500061 25.8333 1.07873 25.8333 1.79173V5.66673H29.7083C30.4226 5.66673 31 6.2454 31 6.9584C31 7.6714 30.4226 8.25006 29.7083 8.25006H25.8333V12.1251C25.8333 12.8381 25.256 13.4167 24.5417 13.4167C23.8274 13.4167 23.25 12.8381 23.25 12.1251V8.25006H19.375C18.6607 8.25006 18.0833 7.6714 18.0833 6.9584ZM29.8297 22.1226C31.3875 23.6816 31.3875 26.2171 29.8297 27.7749L28.6517 29.1311C27.1095 30.6811 25.1022 31.4988 22.9413 31.4988C13.0794 31.5001 0 18.4206 0 8.55748C0 6.39652 0.818917 4.38927 2.30433 2.90644L3.78846 1.61089C5.28033 0.112561 7.81975 0.11127 9.3775 1.6716C9.41754 1.71164 11.8097 4.82069 11.8097 4.82069C13.2848 6.36552 13.2822 8.81065 11.802 10.3503L10.3049 12.231C12.1882 16.5051 15.1267 19.4501 19.2587 21.2042L21.1497 19.6994C22.6907 18.2179 25.1371 18.2166 26.6807 19.6904C26.6807 19.6904 29.7897 22.0838 29.8297 22.1226ZM28.0524 24.0006C28.0524 24.0006 24.9589 21.6214 24.9201 21.5814C24.3854 21.0466 23.4541 21.0466 22.9193 21.5814C22.8857 21.6162 20.2792 23.6932 20.2792 23.6932C19.9227 23.9774 19.4383 24.051 19.0146 23.8883C13.6658 21.8474 9.83346 18.0189 7.62083 12.5061C7.44775 12.0747 7.51879 11.5839 7.80942 11.2209C7.80942 11.2209 9.88513 8.61431 9.92129 8.58073C10.4728 8.02919 10.4728 7.13148 9.92129 6.57994C9.88254 6.54119 7.50329 3.45023 7.50329 3.45023C7.23462 3.20739 6.89362 3.08469 6.55521 3.08469C6.19225 3.08469 5.82929 3.2229 5.55417 3.49802L4.06875 4.79614C3.13617 5.73131 2.5885 7.08756 2.5885 8.55877C2.5885 17.5449 15.2107 28.918 22.9478 28.918C24.4177 28.918 25.7739 28.3691 26.7698 27.3719L27.9478 26.0156C28.5407 25.4176 28.5588 24.5561 28.0576 24.0006H28.0524Z" fill="black"/>
</g>
<defs>
<clipPath id="clip0_1515_5576">
<rect width="31" height="31" fill="white" transform="translate(0 0.5)"/>
</clipPath>
</defs>
</svg>
