<svg width="31" height="32" viewBox="0 0 31 32" fill="none" xmlns="http://www.w3.org/2000/svg">
<g clip-path="url(#clip0_1515_5541)">
<path d="M24.5417 5.66667H23.1195C22.5189 2.72296 19.9097 0.5 16.7917 0.5H6.45833C2.89721 0.5 0 3.39721 0 6.95833V23.5614C0 24.587 0.561875 25.5247 1.46475 26.0078C1.8755 26.2287 2.32629 26.3372 2.77579 26.3372C3.31312 26.3372 3.84917 26.1809 4.31287 25.8722L8.12329 23.3315C9.01583 25.8309 11.4054 27.625 14.2083 27.625H21.567L26.6871 31.0389C27.1521 31.3489 27.6869 31.5052 28.2242 31.5052C28.6737 31.5052 29.1232 31.3954 29.5352 31.1745C30.4394 30.6914 31 29.7537 31 28.7281V12.125C31 8.56388 28.1028 5.66667 24.5417 5.66667ZM2.88042 23.7229C2.85588 23.7384 2.78354 23.7849 2.68408 23.7319C2.58204 23.6777 2.58204 23.5911 2.58204 23.5627V6.95833C2.58204 4.82192 4.32062 3.08333 6.45704 3.08333H16.7904C18.9268 3.08333 20.6654 4.82192 20.6654 6.95833V16C20.6654 18.1364 18.9268 19.875 16.7904 19.875H9.04037C8.618 19.875 8.34158 20.0804 8.31058 20.101L2.88042 23.7229ZM28.4167 28.7294C28.4167 28.7565 28.4167 28.8443 28.3146 28.8986C28.2126 28.9515 28.1428 28.905 28.1196 28.8895L22.6752 25.2587C22.4634 25.1179 22.2141 25.0417 21.9583 25.0417H14.2083C12.524 25.0417 11.089 23.9618 10.5555 22.4583H16.7917C20.3528 22.4583 23.25 19.5611 23.25 16V8.25H24.5417C26.6781 8.25 28.4167 9.98858 28.4167 12.125V28.7294Z" fill="black"/>
</g>
<defs>
<clipPath id="clip0_1515_5541">
<rect width="31" height="31" fill="white" transform="translate(0 0.5)"/>
</clipPath>
</defs>
</svg>
