<svg width="101" height="28" viewBox="0 0 101 28" fill="none" xmlns="http://www.w3.org/2000/svg">
<path d="M8.67696 0.343872C4.08206 0.343872 1.13003 3.77079 1.10316 6.97485V25.5586C1.09756 27.8511 4.65656 27.8511 4.64984 25.5586V13.1556H8.29731C9.15067 13.1556 9.8786 12.5509 9.8786 11.5766C9.8786 10.6056 9.09803 10.0176 8.29731 10.0176H4.64984V7.16076C4.64984 5.33083 6.11017 3.80663 9.04764 3.84247C10.069 3.85591 10.4296 4.09781 10.8025 4.32067C12.8396 5.6444 14.7994 2.58033 12.6649 1.40891C11.3546 0.623849 10.1339 0.344992 8.67584 0.344992L8.67696 0.343872ZM47.5483 0.675365C46.4418 0.61713 45.6276 1.69224 45.7979 2.7136V10.6314C42.2881 7.74647 36.5767 7.94805 33.3402 11.1409C30.0646 14.0045 29.443 19.1919 31.8239 22.7656C33.5743 25.4657 36.7738 27.3919 40.0741 27.2396C42.1482 27.2206 44.2032 26.3414 45.7968 25.0446C45.6344 26.0693 46.4418 27.1545 47.5583 27.0884C48.6536 27.1366 49.5047 26.076 49.3367 25.0502C49.3166 17.437 49.3558 9.82726 49.3166 2.21524C49.2606 1.36187 48.4296 0.656327 47.5583 0.679845H47.5539L47.5483 0.675365ZM61.2546 8.42514C55.9015 8.42514 51.5653 12.645 51.5642 17.8503C51.5631 23.0579 55.9015 27.2799 61.2546 27.2799C66.6065 27.2799 70.9449 23.0579 70.9438 17.8503C70.9438 12.645 66.6043 8.42514 61.2546 8.42514ZM92.9026 8.50913C90.4836 8.50913 88.7389 9.21355 87.4689 10.1061C85.5405 11.4601 87.6145 14.2901 89.5429 12.935C90.4198 12.3191 91.0716 11.992 92.9026 11.992C95.1827 12.0368 97.0126 12.8745 97.0126 14.5454C95.7919 15.3025 90.4792 15.9319 87.6279 17.5233C84.7767 19.1135 84.9268 21.1215 84.9268 22.4229C84.9268 25.2798 88.0008 27.2083 90.6606 27.2083C93.3214 27.2083 94.4514 26.6617 97.0529 24.9124V25.4097C96.9689 27.8096 100.69 27.8096 100.605 25.4097V15.1513C100.616 10.8979 97.5031 8.57184 92.9048 8.50577L92.9026 8.50913ZM75.2576 8.54609C73.7178 8.54609 73.4613 9.79255 73.4692 10.2943V25.4265C73.4266 26.4053 74.252 27.2172 75.2856 27.2172C76.3193 27.2172 77.1435 26.4053 77.1021 25.4265C77.1021 25.4265 77.129 19.7978 77.1021 16.1951C77.0741 12.5934 80.0642 11.814 81.1035 11.814C81.8762 11.814 82.4955 12.2362 83.1069 12.2138C84.014 12.1802 84.7588 11.5822 84.7588 10.5339C84.7308 8.84174 82.6175 8.60208 81.0564 8.63344C79.4953 8.6648 78.1761 9.13404 77.036 9.80262C77.036 9.80262 76.7964 8.54609 75.2554 8.54609H75.2576ZM20.7527 8.58304C19.5746 8.49345 18.2722 8.67936 16.8409 9.22139C13.3726 10.5373 11.0175 13.7682 11.0086 17.7551C10.9974 21.9312 13.9763 27.3191 20.158 27.3606C24.3151 27.3874 26.3947 25.8644 27.5157 24.8284C27.6921 24.677 27.8357 24.4911 27.9378 24.2822C28.0398 24.0733 28.0981 23.8457 28.1092 23.6135C28.1202 23.3812 28.0836 23.1492 28.0018 22.9316C27.92 22.7139 27.7946 22.5153 27.6333 22.3478C27.4695 22.1789 27.274 22.0438 27.058 21.9505C26.842 21.8572 26.6097 21.8074 26.3744 21.804C26.1391 21.8005 25.9054 21.8435 25.6868 21.9305C25.4681 22.0175 25.2687 22.1468 25.1001 22.3109C24.2624 23.0825 23.0283 24.2282 19.5298 23.8474C18.0291 23.685 16.4187 22.489 15.879 21.574L27.3388 16.7931C27.757 16.616 28.0877 16.2802 28.2585 15.8594C28.4292 15.4386 28.4259 14.9672 28.2492 14.5488C26.715 11.5878 24.2904 8.85182 20.7549 8.58416L20.7527 8.58304ZM61.259 11.9562C64.6075 11.9562 67.321 14.5947 67.3221 17.8503C67.3244 21.1092 64.6097 23.7511 61.2602 23.7511C57.9095 23.7511 55.1949 21.1081 55.1971 17.8492C55.1993 14.5947 57.9117 11.9562 61.259 11.9562ZM39.8692 12.048C43.0362 11.9663 45.8662 14.7649 45.8068 17.8425C45.874 20.9222 43.0351 23.7153 39.8703 23.6369C36.8601 23.7153 34.1006 21.2156 33.9483 18.2837C33.6269 15.2633 36.1568 12.3146 39.2566 12.0749C39.4604 12.0559 39.6642 12.0469 39.8692 12.048ZM19.8702 12.1399C21.5926 12.141 23.2187 13.0134 24.0452 14.4166L14.506 18.4125C13.8251 15.9184 16.6203 12.9899 18.1434 12.4434C18.6971 12.2432 19.2814 12.1405 19.8702 12.1399ZM97.1425 17.9746C97.1425 19.1023 97.1604 19.4294 97.1291 20.556C97.1212 21.91 96.2555 22.536 95.3462 23.0534C94.4391 23.5719 92.5913 24.0255 91.5229 24.0747C90.291 24.1151 88.6582 23.8429 88.5709 22.4094C88.5709 21.5438 88.9998 21.0051 89.702 20.407C91.3639 19.1841 93.6137 18.7742 97.1436 17.9735L97.1425 17.9746Z" fill="#B6C4D7"/>
</svg>
