<svg width="45" height="45" viewBox="0 0 45 45" fill="none" xmlns="http://www.w3.org/2000/svg">
<rect width="45" height="45" rx="22.5" fill="white"/>
<path d="M15.9148 31V28.3409L22.1278 22.5881C22.6563 22.0767 23.0994 21.6165 23.4574 21.2074C23.821 20.7983 24.0966 20.3977 24.2841 20.0057C24.4716 19.608 24.5653 19.179 24.5653 18.7188C24.5653 18.2074 24.4489 17.767 24.2159 17.3977C23.983 17.0227 23.6648 16.7358 23.2614 16.5369C22.858 16.3324 22.4006 16.2301 21.8892 16.2301C21.3551 16.2301 20.8892 16.3381 20.4915 16.554C20.0938 16.7699 19.7869 17.0795 19.571 17.483C19.3551 17.8864 19.2472 18.3665 19.2472 18.9233H15.7443C15.7443 17.7812 16.0028 16.7898 16.5199 15.9489C17.0369 15.108 17.7614 14.4574 18.6932 13.9972C19.625 13.5369 20.6989 13.3068 21.9148 13.3068C23.1648 13.3068 24.2528 13.5284 25.179 13.9716C26.1108 14.4091 26.8352 15.017 27.3523 15.7955C27.8693 16.5739 28.1278 17.4659 28.1278 18.4716C28.1278 19.1307 27.9972 19.7812 27.7358 20.4233C27.4801 21.0653 27.0227 21.7784 26.3636 22.5625C25.7045 23.3409 24.7756 24.2756 23.5767 25.3665L21.0284 27.8636V27.983H28.358V31H15.9148Z" fill="black"/>
</svg>
