<svg width="45" height="45" viewBox="0 0 45 45" fill="none" xmlns="http://www.w3.org/2000/svg">
<rect width="45" height="45" rx="22.5" fill="black"/>
<rect width="45" height="45" rx="22.5" fill="white"/>
<path d="M22.3665 31.2386C21.0938 31.2386 19.9602 31.0199 18.9659 30.5824C17.9773 30.1392 17.196 29.5312 16.6222 28.7585C16.054 27.9801 15.7614 27.0824 15.7443 26.0653H19.4602C19.483 26.4915 19.6222 26.8665 19.8778 27.1903C20.1392 27.5085 20.4858 27.7557 20.9176 27.9318C21.3494 28.108 21.8352 28.196 22.375 28.196C22.9375 28.196 23.4347 28.0966 23.8665 27.8977C24.2983 27.6989 24.6364 27.4233 24.8807 27.071C25.125 26.7187 25.2472 26.3125 25.2472 25.8523C25.2472 25.3864 25.1165 24.9744 24.8551 24.6165C24.5994 24.2528 24.2301 23.9687 23.7472 23.7642C23.2699 23.5597 22.7017 23.4574 22.0426 23.4574H20.4148V20.7472H22.0426C22.5994 20.7472 23.0909 20.6506 23.517 20.4574C23.9489 20.2642 24.2841 19.9972 24.5227 19.6562C24.7614 19.3097 24.8807 18.9062 24.8807 18.446C24.8807 18.0085 24.7756 17.625 24.5653 17.2955C24.3608 16.9602 24.071 16.6989 23.696 16.5114C23.3267 16.3239 22.8949 16.2301 22.4006 16.2301C21.9006 16.2301 21.4432 16.321 21.0284 16.5028C20.6136 16.679 20.2812 16.9318 20.0312 17.2614C19.7812 17.5909 19.6477 17.9773 19.6307 18.4205H16.0938C16.1108 17.4148 16.3977 16.5284 16.9545 15.7614C17.5114 14.9943 18.2614 14.3949 19.2045 13.9631C20.1534 13.5256 21.2244 13.3068 22.4176 13.3068C23.6222 13.3068 24.6761 13.5256 25.5795 13.9631C26.483 14.4006 27.1847 14.9915 27.6847 15.7358C28.1903 16.4744 28.4403 17.304 28.4347 18.2244C28.4403 19.2017 28.1364 20.017 27.5227 20.6705C26.9148 21.3239 26.1222 21.7386 25.1449 21.9148V22.0511C26.429 22.2159 27.4063 22.6619 28.0767 23.3892C28.7528 24.1108 29.0881 25.0142 29.0824 26.0994C29.0881 27.0938 28.8011 27.9773 28.2216 28.75C27.6477 29.5227 26.8551 30.1307 25.8438 30.5739C24.8324 31.017 23.6733 31.2386 22.3665 31.2386Z" fill="black"/>
</svg>
