<svg width="99" height="28" viewBox="0 0 99 28" fill="none" xmlns="http://www.w3.org/2000/svg">
<path d="M11.3528 12.0276C11.1605 12.0276 10.9679 12.2201 10.9679 12.4126V16.3569C10.9679 16.5494 11.1605 16.7419 11.3528 16.7419H14.5277V21.6483C14.5277 21.6483 13.8544 21.9369 11.834 21.9369C9.52489 21.9369 6.34987 21.071 6.34987 13.9518C6.34987 6.83259 9.71723 5.96681 12.8922 5.96681C15.6823 5.96681 16.8368 6.44778 17.6065 6.64011C17.7989 6.73642 18.0875 6.44778 18.0875 6.25545L18.9535 2.40713C18.9535 2.31097 18.9535 2.2148 18.761 2.1185C18.4724 1.92616 16.6444 0.86792 11.9301 0.86792C6.44604 0.86792 1.05841 3.08058 1.05841 14.2404C1.05841 25.3041 7.40816 26.9397 12.6998 26.9397C17.1254 26.9397 19.8193 25.1117 19.8193 25.1117C19.9155 25.0155 19.9155 24.9193 19.9155 24.8232V12.4126C19.9155 12.2201 19.7231 12.0276 19.5306 12.0276M61.0934 2.21466C61.0934 2.02233 60.9011 1.82986 60.7086 1.82986H56.1868C55.9943 1.82986 55.8019 2.02233 55.8019 2.2148V10.9694H48.6824V2.2148C48.6824 2.02233 48.4899 1.82986 48.2974 1.82986H43.7756C43.5831 1.82986 43.3908 2.02233 43.3908 2.2148V25.9776C43.3908 26.1701 43.5831 26.3624 43.7756 26.3624H48.2974C48.4899 26.3624 48.6824 26.1701 48.6824 25.9776V15.7798H55.8019V25.9776C55.8019 26.1701 55.9943 26.3624 56.1868 26.3624H60.7086C60.9011 26.3624 61.0934 26.1701 61.0934 25.9776V2.21466ZM25.1108 8.37194C26.758 8.37194 28.0933 7.03654 28.0933 5.38954C28.0933 3.7424 26.758 2.40713 25.1108 2.40713C23.4635 2.40713 22.1282 3.74254 22.1282 5.38954C22.1282 7.03668 23.4635 8.37194 25.1108 8.37194ZM27.7085 10.0075C27.7085 9.81499 27.5161 9.62252 27.3237 9.62252H22.8018C22.6094 9.62252 22.417 9.81499 22.417 10.0075V25.7851C22.417 26.2662 22.7057 26.3624 23.0905 26.3624H27.2275C27.7085 26.3624 27.8048 26.1701 27.8048 25.7851M73.8894 9.71882C73.6969 9.71882 73.5045 9.91115 73.5045 10.1036V21.7445C73.5045 21.7445 72.3499 22.6104 70.7145 22.6104C69.0789 22.6104 68.6941 21.8408 68.6941 20.3014V10.1036C68.6941 9.91115 68.5016 9.71868 68.3091 9.71868H63.7873C63.5948 9.71868 63.4025 9.91115 63.4025 10.1036V21.071C63.4025 25.7851 66.0002 26.9397 69.656 26.9397C72.6386 26.9397 75.0438 25.3041 75.0438 25.3041C75.0438 25.3041 75.1401 26.17 75.2363 26.2662C75.3325 26.3624 75.4288 26.4585 75.5249 26.4585H78.4112C78.6037 26.4585 78.7961 26.2662 78.7961 26.0737V10.1035C78.7961 9.91115 78.6037 9.71882 78.4112 9.71882M89.0906 22.7065C87.1663 22.7065 86.3004 21.8408 86.3004 21.8408V14.2404C86.3004 14.2404 87.3588 13.5671 88.6094 13.4708C90.245 13.2784 91.7844 13.8556 91.7844 17.7038C91.7844 21.8408 91.3033 22.7065 88.9942 22.7065H89.0906ZM86.4928 10.296V2.21466C86.4928 2.02233 86.3004 1.82986 86.108 1.82986H81.5862C81.3937 1.82986 81.2012 2.02233 81.2012 2.2148V25.9776C81.2012 26.1699 81.3937 26.3624 81.5862 26.3624H84.7611C84.8572 26.3624 85.0497 26.2662 85.0497 26.1699C85.1459 26.0737 85.2421 25.1117 85.2421 25.1117C85.2421 25.1117 87.0701 26.9397 90.6298 26.9397C94.767 26.9397 97.1722 24.8232 97.1722 17.5115C97.1722 10.1998 93.42 9.23771 90.8223 9.23771C88.2246 9.23771 86.4928 10.3923 86.4928 10.3923V10.296ZM37.4257 9.62252V5.1009C37.4257 4.90843 37.3296 4.81226 37.1371 4.81226H32.4228C32.2304 4.81226 32.1341 4.90857 32.1341 5.19721V9.91115C32.1341 9.91115 29.8251 10.4884 29.6327 10.4884C29.4402 10.5846 29.3441 10.6809 29.3441 10.8734V13.8556C29.3441 14.0481 29.5365 14.2404 29.7289 14.2404H32.1341V21.2635C32.1341 26.5549 35.7901 27.0358 38.2917 27.0358C39.4461 27.0358 40.7931 26.651 40.9856 26.5549C41.0817 26.4585 41.1779 26.3624 41.1779 26.1701V22.9952C41.1779 22.8028 40.9856 22.6104 40.7931 22.6104C40.6006 22.6104 40.1196 22.7065 39.5423 22.7065C37.9067 22.7065 37.3296 21.9369 37.3296 20.8787V14.2404H40.6969C40.8893 14.2404 41.0817 14.0481 41.0817 13.8556V10.0075C41.0817 9.81499 40.8893 9.62252 40.6969 9.62252" fill="#B6C4D7"/>
</svg>
