<svg width="130" height="28" viewBox="0 0 130 28" fill="none" xmlns="http://www.w3.org/2000/svg">
<path d="M29.0219 11.083L28.9827 10.9785L25.0254 0.655904C24.9453 0.453215 24.8028 0.28126 24.6185 0.164924C24.481 0.0769365 24.3247 0.022384 24.1623 0.00563673C23.9999 -0.0111106 23.8358 0.0104129 23.6832 0.0684828C23.5306 0.126553 23.3938 0.219555 23.2836 0.340039C23.1734 0.460523 23.0929 0.60514 23.0487 0.762304L20.3775 8.94012H9.56026L6.88906 0.762304C6.84448 0.605369 6.76385 0.461018 6.65361 0.340758C6.54337 0.220499 6.40655 0.127657 6.25407 0.0696331C6.1016 0.0116093 5.93767 -0.00999146 5.77537 0.00655266C5.61307 0.0230968 5.45687 0.0773282 5.31924 0.164924C5.1349 0.281231 4.99236 0.45319 4.91226 0.655904L0.956838 10.9802L0.915678 11.0828C0.346228 12.5711 0.276091 14.2042 0.715841 15.7359C1.15559 17.2675 2.08139 18.6147 3.35364 19.5742L3.36848 19.5854L3.40208 19.6116L9.42208 24.1233L12.4087 26.3801L14.2231 27.7521C14.436 27.9129 14.6955 28 14.9623 28C15.2291 28 15.4886 27.9129 15.7015 27.7521L17.5159 26.3801L20.5025 24.1233L26.5654 19.5854L26.5822 19.5724C27.8543 18.6132 28.7802 17.2665 29.2203 15.7352C29.6604 14.2039 29.5908 12.5712 29.0219 11.083ZM52.7134 10.549H56.9657C56.2563 6.02812 52.342 2.8791 47.2478 2.8791C41.2204 2.8791 36.6976 7.31038 36.6976 14.7322C36.6976 22.0216 41.017 26.5426 47.371 26.5426C53.0737 26.5426 57.1561 22.8746 57.1561 16.9368V14.1704H47.8098V17.4314H53.1185C53.0513 20.7168 50.858 22.7962 47.3934 22.7962C43.537 22.7962 40.8938 19.9066 40.8938 14.6874C40.8938 9.5018 43.5818 6.6234 47.3038 6.6234C50.0814 6.6234 51.9817 8.1074 52.7134 10.549ZM59.9671 26.227H64.0383V8.96056H59.9671V26.227ZM62.0205 6.21656C63.3141 6.21656 64.3707 5.22536 64.3707 4.01212C64.3707 2.79874 63.3141 1.79634 62.0205 1.79634C60.7269 1.79634 59.6593 2.78572 59.6593 4.01212C59.6593 5.23852 60.7083 6.21656 62.0131 6.21656H62.0205ZM76.2295 8.96056H72.8211V4.81292H68.7499V8.96056H66.2989V12.1096H68.7499V21.7154C68.7275 24.9652 71.0907 26.5688 74.1481 26.4736C74.9627 26.4574 75.7703 26.3208 76.5449 26.0684L75.8581 22.884C75.469 22.985 75.0691 23.0382 74.6671 23.0426C73.6423 23.0426 72.8211 22.6824 72.8211 21.0398V12.1003H76.2295V8.96056ZM79.3805 26.2272H93.6977V22.729H83.5543V3.1927H79.3805V26.2272ZM101.497 26.5762C104.207 26.5762 105.825 25.305 106.568 23.8546H106.703V26.2272H110.623V14.6651C110.623 10.0993 106.901 8.72732 103.604 8.72732C99.9716 8.72732 97.1828 10.3457 96.283 13.4947L100.085 14.0361C100.489 12.8545 101.637 11.8427 103.632 11.8427C105.523 11.8427 106.557 12.8097 106.557 14.5083V14.5755C106.557 15.7441 105.331 15.8019 102.282 16.1267C98.9318 16.487 95.7268 17.4875 95.7268 21.3795C95.7156 24.7768 98.2 26.5762 101.497 26.5762ZM102.835 23.5896C101.136 23.5896 99.9212 22.813 99.9212 21.3179C99.9212 19.7536 101.282 19.1022 103.094 18.8427C104.164 18.6971 106.301 18.4264 106.828 18.0008V20.0355C106.839 21.9526 105.286 23.584 102.835 23.584V23.5896ZM113.62 26.2272H117.624V23.5056H117.86C118.502 24.7656 119.84 26.5314 122.81 26.5314C126.881 26.5314 129.929 23.3022 129.929 17.6126C129.929 11.8539 126.791 8.72732 122.799 8.72732C119.75 8.72732 118.479 10.5603 117.86 11.8091H117.688V3.1927H113.62V26.2272ZM117.613 17.5902C117.613 14.2302 119.052 12.0667 121.673 12.0667C124.383 12.0667 125.78 14.372 125.78 17.5902C125.78 20.8082 124.363 23.1902 121.673 23.1902C119.075 23.1902 117.613 20.9408 117.613 17.5902Z" fill="#B6C4D7"/>
</svg>
