<svg width="103" height="32" viewBox="0 0 103 32" fill="none" xmlns="http://www.w3.org/2000/svg">
<path d="M13.6454 11.3955V14.8176H21.8252C21.5748 16.7373 20.9349 18.1423 19.9611 19.13C18.7647 20.3263 16.9006 21.6339 13.6454 21.6339C8.60953 21.6339 4.67266 17.5719 4.67266 12.5362C4.67266 7.50043 8.60953 3.43844 13.6454 3.43844C16.3581 3.43844 18.3474 4.50958 19.808 5.88676L22.2147 3.48017C20.1837 1.50482 17.4571 0.00244141 13.6454 0.00244141C6.74543 0.00244141 0.944458 5.62246 0.944458 12.5223C0.944458 19.4221 6.74543 25.0421 13.6454 25.0421C17.3736 25.0421 20.1836 23.818 22.3816 21.5366C24.6352 19.283 25.3447 16.0974 25.3447 13.5378C25.3447 12.7449 25.2891 12.0076 25.1639 11.3955H13.6454ZM35.5694 8.61331C31.1039 8.61331 27.4592 12.0076 27.4592 16.6956C27.4592 21.3418 31.1039 24.7778 35.5694 24.7778C40.0349 24.7778 43.6797 21.3557 43.6797 16.6956C43.6797 12.0076 40.0349 8.61331 35.5694 8.61331ZM35.5694 21.5922C33.1211 21.5922 31.0066 19.5751 31.0066 16.6956C31.0066 13.7882 33.1211 11.7989 35.5694 11.7989C38.0178 11.7989 40.1323 13.7882 40.1323 16.6956C40.1323 19.5751 38.0178 21.5922 35.5694 21.5922ZM75.3277 10.4217H75.2025C74.4095 9.47578 72.8793 8.61331 70.9456 8.61331C66.9114 8.61331 63.3918 12.1328 63.3918 16.6956C63.3918 21.2305 66.9114 24.7778 70.9456 24.7778C72.8793 24.7778 74.4095 23.9153 75.2025 22.9416H75.3277V24.0683C75.3277 27.1566 73.6722 28.812 71.0152 28.812C68.845 28.812 67.4957 27.254 66.9392 25.9324L63.8509 27.2122C64.7412 29.3545 67.0922 31.9837 71.0152 31.9837C75.1746 31.9837 78.6942 29.5353 78.6942 23.5676V9.03063H75.3277V10.4217ZM71.2517 21.5922C68.8033 21.5922 66.9392 19.5056 66.9392 16.6956C66.9392 13.8438 68.8033 11.7989 71.2517 11.7989C73.6722 11.7989 75.5642 13.8855 75.5642 16.7234C75.5781 19.5473 73.6722 21.5922 71.2517 21.5922ZM53.654 8.61331C49.1885 8.61331 45.5438 12.0076 45.5438 16.6956C45.5438 21.3418 49.1885 24.7778 53.654 24.7778C58.1195 24.7778 61.7642 21.3557 61.7642 16.6956C61.7642 12.0076 58.1195 8.61331 53.654 8.61331ZM53.654 21.5922C51.2056 21.5922 49.0911 19.5751 49.0911 16.6956C49.0911 13.7882 51.2056 11.7989 53.654 11.7989C56.1024 11.7989 58.2169 13.7882 58.2169 16.6956C58.2169 19.5751 56.1024 21.5922 53.654 21.5922ZM81.4764 0.336304H84.9681V24.7778H81.4764V0.336304ZM95.7493 21.5922C93.9408 21.5922 92.661 20.7715 91.8263 19.1439L102.635 14.6785L102.274 13.7604C101.606 11.9519 99.5471 8.61331 95.3598 8.61331C91.2003 8.61331 87.7365 11.8824 87.7365 16.6956C87.7365 21.2305 91.1586 24.7778 95.7493 24.7778C99.4497 24.7778 101.592 22.5103 102.482 21.2027L99.7279 19.3665C98.8098 20.7019 97.5578 21.5922 95.7493 21.5922ZM95.4989 11.6459C96.9318 11.6459 98.1559 12.3832 98.5594 13.4265L91.256 16.4452C91.256 13.0509 93.6626 11.6459 95.4989 11.6459Z" fill="#B6C4D7"/>
</svg>
