<svg width="25" height="25" viewBox="0 0 25 25" fill="none" xmlns="http://www.w3.org/2000/svg">
<path d="M19.4896 8.55208C19.3928 8.45445 19.2776 8.37695 19.1506 8.32407C19.0237 8.27118 18.8875 8.24396 18.75 8.24396C18.6125 8.24396 18.4763 8.27118 18.3494 8.32407C18.2225 8.37695 18.1073 8.45445 18.0104 8.55208L13.2396 13.3229C13.1428 13.4205 13.0275 13.498 12.9006 13.5509C12.7737 13.6038 12.6375 13.631 12.5 13.631C12.3625 13.631 12.2263 13.6038 12.0994 13.5509C11.9725 13.498 11.8573 13.4205 11.7604 13.3229L6.9896 8.55208C6.89276 8.45445 6.77755 8.37695 6.65061 8.32407C6.52368 8.27118 6.38752 8.24396 6.25001 8.24396C6.1125 8.24396 5.97635 8.27118 5.84941 8.32407C5.72247 8.37695 5.60726 8.45445 5.51043 8.55208C5.31642 8.74725 5.20752 9.01126 5.20752 9.28646C5.20752 9.56165 5.31642 9.82566 5.51043 10.0208L10.2917 14.8021C10.8776 15.3873 11.6719 15.716 12.5 15.716C13.3281 15.716 14.1224 15.3873 14.7083 14.8021L19.4896 10.0208C19.6836 9.82566 19.7925 9.56165 19.7925 9.28646C19.7925 9.01126 19.6836 8.74725 19.4896 8.55208Z" fill="#3973E6"/>
</svg>
