<svg width="19" height="19" viewBox="0 0 19 19" fill="none" xmlns="http://www.w3.org/2000/svg">
<path d="M12.5217 16.1104V14.6C12.5217 13.7987 12.2034 13.0303 11.6368 12.4638C11.0703 11.8973 10.3019 11.579 9.50069 11.579H4.96922C4.16801 11.579 3.39961 11.8973 2.83307 12.4638C2.26652 13.0303 1.94824 13.7987 1.94824 14.6V16.1104" stroke="#3973E6" stroke-width="1.51049" stroke-linecap="round" stroke-linejoin="round"/>
<path d="M7.23582 8.55795C8.90426 8.55795 10.2568 7.20541 10.2568 5.53697C10.2568 3.86853 8.90426 2.51599 7.23582 2.51599C5.56738 2.51599 4.21484 3.86853 4.21484 5.53697C4.21484 7.20541 5.56738 8.55795 7.23582 8.55795Z" stroke="#3973E6" stroke-width="1.51049" stroke-linecap="round" stroke-linejoin="round"/>
<path d="M17.0528 16.1104V14.5999C17.0523 13.9306 16.8296 13.2803 16.4195 12.7513C16.0094 12.2223 15.4352 11.8445 14.7871 11.6771" stroke="#3973E6" stroke-width="1.51049" stroke-linecap="round" stroke-linejoin="round"/>
<path d="M12.5215 2.61414C13.1713 2.78052 13.7473 3.15844 14.1586 3.68833C14.5699 4.21821 14.7931 4.86992 14.7931 5.54071C14.7931 6.2115 14.5699 6.8632 14.1586 7.39309C13.7473 7.92298 13.1713 8.3009 12.5215 8.46728" stroke="#3973E6" stroke-width="1.51049" stroke-linecap="round" stroke-linejoin="round"/>
</svg>
