<svg width="18" height="18" viewBox="0 0 18 18" fill="none" xmlns="http://www.w3.org/2000/svg">
<path d="M15.1054 9.81816C15.1054 13.5944 12.462 15.4825 9.32023 16.5776C9.15571 16.6334 8.97699 16.6307 8.81421 16.5701C5.66484 15.4825 3.02148 13.5944 3.02148 9.81816V4.53145C3.02148 4.33115 3.10105 4.13905 3.24269 3.99741C3.38433 3.85578 3.57643 3.77621 3.77673 3.77621C5.28722 3.77621 7.17533 2.86991 8.48946 1.72194C8.64946 1.58524 8.853 1.51013 9.06344 1.51013C9.27389 1.51013 9.47743 1.58524 9.63743 1.72194C10.9591 2.87746 12.8397 3.77621 14.3502 3.77621C14.5505 3.77621 14.7426 3.85578 14.8842 3.99741C15.0258 4.13905 15.1054 4.33115 15.1054 4.53145V9.81816Z" stroke="#3973E6" stroke-width="1.51049" stroke-linecap="round" stroke-linejoin="round"/>
</svg>
