<svg width="19" height="19" viewBox="0 0 19 19" fill="none" xmlns="http://www.w3.org/2000/svg">
<path d="M11.8283 10.3633L12.9725 16.8025C12.9853 16.8783 12.9747 16.9562 12.942 17.0259C12.9093 17.0955 12.8562 17.1535 12.7897 17.1921C12.7231 17.2306 12.6464 17.248 12.5698 17.2418C12.4931 17.2356 12.4202 17.2062 12.3607 17.1575L9.65695 15.1281C9.52643 15.0306 9.36787 14.9779 9.20494 14.9779C9.04201 14.9779 8.88345 15.0306 8.75292 15.1281L6.04462 17.1567C5.98519 17.2054 5.91235 17.2348 5.83579 17.2409C5.75923 17.2471 5.68261 17.2298 5.61614 17.1913C5.54967 17.1529 5.49652 17.095 5.46377 17.0255C5.43103 16.9561 5.42025 16.8783 5.43287 16.8025L6.57631 10.3633" stroke="#3973E6" stroke-width="1.51049" stroke-linecap="round" stroke-linejoin="round"/>
<path d="M9.20334 11.2015C11.706 11.2015 13.7348 9.17268 13.7348 6.67002C13.7348 4.16736 11.706 2.13855 9.20334 2.13855C6.70068 2.13855 4.67188 4.16736 4.67188 6.67002C4.67188 9.17268 6.70068 11.2015 9.20334 11.2015Z" stroke="#3973E6" stroke-width="1.51049" stroke-linecap="round" stroke-linejoin="round"/>
</svg>
