<svg width="37" height="37" viewBox="0 0 37 37" fill="none" xmlns="http://www.w3.org/2000/svg">
<rect width="37" height="37" rx="18.5" fill="#F6F9FF"/>
<path d="M24.1054 19.8182C24.1054 23.5944 21.462 25.4825 18.3202 26.5776C18.1557 26.6334 17.977 26.6307 17.8142 26.5701C14.6648 25.4825 12.0215 23.5944 12.0215 19.8182V14.5315C12.0215 14.3311 12.1011 14.139 12.2427 13.9974C12.3843 13.8558 12.5764 13.7762 12.7767 13.7762C14.2872 13.7762 16.1753 12.8699 17.4895 11.7219C17.6495 11.5852 17.853 11.5101 18.0634 11.5101C18.2739 11.5101 18.4774 11.5852 18.6374 11.7219C19.9591 12.8775 21.8397 13.7762 23.3502 13.7762C23.5505 13.7762 23.7426 13.8558 23.8842 13.9974C24.0258 14.139 24.1054 14.3311 24.1054 14.5315V19.8182Z" stroke="#3973E6" stroke-width="1.51049" stroke-linecap="round" stroke-linejoin="round"/>
</svg>
