<svg width="37" height="37" viewBox="0 0 37 37" fill="none" xmlns="http://www.w3.org/2000/svg">
<rect width="37" height="37" rx="18.5" fill="#F6F9FF"/>
<path d="M20.8283 20.3633L21.9725 26.8025C21.9853 26.8783 21.9747 26.9562 21.942 27.0259C21.9093 27.0955 21.8562 27.1535 21.7897 27.1921C21.7231 27.2306 21.6464 27.248 21.5698 27.2418C21.4931 27.2356 21.4202 27.2062 21.3607 27.1575L18.657 25.1281C18.5264 25.0306 18.3679 24.9779 18.2049 24.9779C18.042 24.9779 17.8835 25.0306 17.7529 25.1281L15.0446 27.1567C14.9852 27.2054 14.9123 27.2348 14.8358 27.2409C14.7592 27.2471 14.6826 27.2298 14.6161 27.1913C14.5497 27.1529 14.4965 27.095 14.4638 27.0255C14.431 26.9561 14.4202 26.8783 14.4329 26.8025L15.5763 20.3633" stroke="#3973E6" stroke-width="1.51049" stroke-linecap="round" stroke-linejoin="round"/>
<path d="M18.2033 21.2015C20.706 21.2015 22.7348 19.1727 22.7348 16.67C22.7348 14.1674 20.706 12.1385 18.2033 12.1385C15.7007 12.1385 13.6719 14.1674 13.6719 16.67C13.6719 19.1727 15.7007 21.2015 18.2033 21.2015Z" stroke="#3973E6" stroke-width="1.51049" stroke-linecap="round" stroke-linejoin="round"/>
</svg>
