<svg width="37" height="37" viewBox="0 0 37 37" fill="none" xmlns="http://www.w3.org/2000/svg">
<rect width="37" height="37" rx="18.5" fill="#F6F9FF"/>
<path d="M21.5217 27.1104V25.6C21.5217 24.7987 21.2034 24.0303 20.6368 23.4638C20.0703 22.8973 19.3019 22.579 18.5007 22.579H13.9692C13.168 22.579 12.3996 22.8973 11.8331 23.4638C11.2665 24.0303 10.9482 24.7987 10.9482 25.6V27.1104" stroke="#3973E6" stroke-width="1.51049" stroke-linecap="round" stroke-linejoin="round"/>
<path d="M16.2358 19.5579C17.9043 19.5579 19.2568 18.2054 19.2568 16.537C19.2568 14.8685 17.9043 13.516 16.2358 13.516C14.5674 13.516 13.2148 14.8685 13.2148 16.537C13.2148 18.2054 14.5674 19.5579 16.2358 19.5579Z" stroke="#3973E6" stroke-width="1.51049" stroke-linecap="round" stroke-linejoin="round"/>
<path d="M26.0528 27.1104V25.5999C26.0523 24.9306 25.8296 24.2803 25.4195 23.7513C25.0094 23.2223 24.4352 22.8445 23.7871 22.6771" stroke="#3973E6" stroke-width="1.51049" stroke-linecap="round" stroke-linejoin="round"/>
<path d="M21.5215 13.6141C22.1713 13.7805 22.7473 14.1584 23.1586 14.6883C23.5699 15.2182 23.7931 15.8699 23.7931 16.5407C23.7931 17.2115 23.5699 17.8632 23.1586 18.3931C22.7473 18.923 22.1713 19.3009 21.5215 19.4673" stroke="#3973E6" stroke-width="1.51049" stroke-linecap="round" stroke-linejoin="round"/>
</svg>
