<svg width="87" height="24" viewBox="0 0 87 24" fill="none" xmlns="http://www.w3.org/2000/svg">
<path d="M16.1778 17.7285C16.4456 18.7378 16.8779 19.128 17.6419 19.128C18.4339 19.128 18.8492 18.6542 18.8492 17.7285V0.543204H23.8102V17.7285C23.8102 20.1509 23.4947 21.2005 22.2616 22.4291C21.3729 23.3143 19.7336 23.9987 17.6639 23.9987C15.9916 23.9987 14.3915 23.4474 13.3711 22.4292C12.4763 21.5364 11.9849 20.6194 11.217 17.7283L8.17265 6.27162C7.9046 5.26229 7.47252 4.87221 6.70857 4.87221C5.91641 4.87221 5.50114 5.34592 5.50114 6.27162V23.4571H0.540039V6.27162C0.540039 3.84932 0.855605 2.79944 2.08883 1.57101C2.97721 0.686108 4.6166 0.00134277 6.68661 0.00134277C8.35887 0.00134277 9.95901 0.552803 10.9794 1.57089C11.8741 2.46359 12.3655 3.38066 13.1335 6.27174L16.1778 17.7285ZM81.8028 23.4571L76.0734 5.60497C76.0101 5.40795 75.9504 5.24069 75.8586 5.1291C75.7012 4.93833 75.4834 4.83802 75.1904 4.83802C74.8975 4.83802 74.6797 4.93821 74.5222 5.1291C74.4305 5.24045 74.3706 5.40771 74.3077 5.60497L68.5784 23.4571H63.4503L69.7084 3.95587C70.0346 2.93994 70.5006 2.07748 71.092 1.50286C72.1071 0.517287 73.3031 0.00134277 75.1905 0.00134277C77.078 0.00134277 78.2742 0.517287 79.2889 1.50262C79.8803 2.07748 80.3464 2.93982 80.6726 3.95575L86.9308 23.4569H81.8028V23.4571ZM56.8366 23.4571C60.0868 23.4571 61.6722 22.7693 62.9246 21.5288C64.3106 20.1565 64.9735 18.655 64.9735 16.4133C64.9735 14.4324 64.2454 12.5977 63.137 11.4998C61.6877 10.0643 59.8874 9.61182 56.952 9.61182L52.8404 9.6117C51.2693 9.6117 50.6432 9.4226 50.1479 8.93785C49.8078 8.60525 49.6483 8.11066 49.6483 7.52776C49.6483 6.92519 49.794 6.33005 50.2097 5.92354C50.5788 5.56262 51.0818 5.39704 52.0484 5.39704H63.9313V0.543204H52.956C49.7058 0.543204 48.1205 1.23109 46.8678 2.47139C45.4821 3.8438 44.8189 5.34508 44.8189 7.5868C44.8189 9.56802 45.547 11.4025 46.6556 12.5001C48.1051 13.9358 49.9052 14.3884 52.8405 14.3884L56.9523 14.3887C58.5234 14.3887 59.1495 14.5775 59.6448 15.0625C59.9849 15.3952 60.1444 15.8895 60.1444 16.4725C60.1444 17.0751 59.9987 17.6703 59.5831 18.0768C59.2139 18.4376 58.7109 18.6032 57.7443 18.6032H45.4889L40.7885 3.95587C40.4625 2.93994 39.9963 2.07748 39.4049 1.50286C38.3899 0.517287 37.1938 0.00134277 35.3064 0.00134277C33.419 0.00134277 32.2227 0.517287 31.2082 1.50262C30.6167 2.07748 30.1507 2.93982 29.8247 3.95575L23.5664 23.4569H28.6944L34.4238 5.60485C34.487 5.40771 34.5467 5.24045 34.6385 5.12886C34.796 4.93809 35.0138 4.8379 35.3067 4.8379C35.5996 4.8379 35.8174 4.93809 35.9749 5.12886C36.0667 5.24033 36.1265 5.40759 36.1895 5.60485L41.9189 23.4569H56.8366V23.4571Z" fill="#B6C4D7"/>
</svg>
