<svg width="117" height="32" viewBox="0 0 117 32" fill="none" xmlns="http://www.w3.org/2000/svg">
<path d="M36.802 15.3842C36.802 20.6162 40.1621 24.2641 44.8182 24.2641C49.4743 24.2641 52.8344 20.6162 52.8344 15.3842C52.8344 10.1522 49.4743 6.50424 44.8182 6.50424C40.1621 6.50424 36.802 10.1522 36.802 15.3842ZM49.7624 15.3842C49.7624 19.1282 47.7223 21.5522 44.8182 21.5522C41.9141 21.5522 39.8741 19.1282 39.8741 15.3842C39.8741 11.6402 41.9141 9.21623 44.8182 9.21623C47.7223 9.21623 49.7624 11.6402 49.7624 15.3842ZM61.4858 24.2641C65.0139 24.2641 67.0299 21.2882 67.0299 17.7122C67.0299 14.1362 65.0139 11.1602 61.4858 11.1602C59.8537 11.1602 58.6537 11.8082 57.8617 12.7442V11.4002H54.9816V28.3201H57.8617V22.6801C58.6537 23.6161 59.8537 24.2641 61.4858 24.2641ZM57.7897 17.3522C57.7897 14.9762 59.1337 13.6802 60.9097 13.6802C62.9978 13.6802 64.1258 15.3122 64.1258 17.7122C64.1258 20.1122 62.9978 21.7442 60.9097 21.7442C59.1337 21.7442 57.7897 20.4242 57.7897 18.0962V17.3522ZM74.8241 24.2641C77.3442 24.2641 79.3363 22.9441 80.2243 20.7362L77.7522 19.8002C77.3682 21.0962 76.2402 21.8162 74.8241 21.8162C72.9761 21.8162 71.6801 20.4962 71.464 18.3362H80.2963V17.3762C80.2963 13.9202 78.3522 11.1602 74.7041 11.1602C71.056 11.1602 68.704 14.0162 68.704 17.7122C68.704 21.6002 71.224 24.2641 74.8241 24.2641ZM74.6801 13.5842C76.5042 13.5842 77.3682 14.7842 77.3922 16.1762H71.608C72.0401 14.4722 73.1921 13.5842 74.6801 13.5842ZM82.4574 24.0001H85.3375V16.6082C85.3375 14.8082 86.6575 13.8482 87.9536 13.8482C89.5376 13.8482 90.1617 14.9762 90.1617 16.5362V24.0001H93.0417V15.6962C93.0417 12.9842 91.4577 11.1602 88.8176 11.1602C87.1856 11.1602 86.0575 11.9042 85.3375 12.7442V11.4002H82.4574V24.0001ZM101.477 6.76811L94.9487 24.0001H97.9968L99.4608 20.0642H106.901L108.389 24.0001H111.485L104.957 6.76824H101.477V6.76811ZM103.157 10.1761L105.893 17.3762H100.469L103.157 10.1761ZM116.429 6.81824H113.357V24.0501H116.429V6.81824ZM29.7639 13.0973C30.1227 12.02 30.2472 10.8785 30.129 9.74926C30.0109 8.61998 29.6528 7.52899 29.0788 6.54931C27.3328 3.50933 23.8227 1.94534 20.3946 2.68133C19.6409 1.83214 18.7146 1.15366 17.6776 0.691275C16.6406 0.22889 15.5169 -0.00673922 14.3815 0.000146682C10.8774 -0.00785327 7.76822 2.24813 6.69019 5.58211C5.57743 5.80996 4.52618 6.27285 3.60679 6.9398C2.68739 7.60675 1.92107 8.46238 1.3591 9.44943C-0.400018 12.4814 0.0010604 16.3034 2.35113 18.9034C1.99234 19.9806 1.86785 21.1221 1.98597 22.2514C2.1041 23.3806 2.46213 24.4716 3.03608 25.4513C4.78213 28.4913 8.29223 30.0553 11.7203 29.3193C12.4739 30.1686 13.4002 30.8471 14.4373 31.3093C15.4743 31.7715 16.5982 32.0067 17.7336 31.9993C21.2397 32.0082 24.3498 29.7502 25.4278 26.4133C26.5405 26.1855 27.5918 25.7227 28.5111 25.0558C29.4305 24.3889 30.1969 23.5333 30.7589 22.5463C32.516 19.5143 32.114 15.6954 29.7648 13.0954L29.7639 13.0974V13.0973ZM17.7356 29.9081C16.3326 29.9104 14.9735 29.419 13.8964 28.5201C13.9604 28.4862 14.0234 28.4506 14.0855 28.4132L20.4576 24.7332C20.6177 24.6422 20.7506 24.5102 20.8427 24.3508C20.9349 24.1914 20.9828 24.0103 20.9817 23.8261V14.8433L23.6747 16.3982C23.7037 16.4122 23.7227 16.4402 23.7267 16.4722V23.9112C23.7227 27.2192 21.0437 29.9012 17.7356 29.9081ZM4.8512 24.4052C4.14831 23.1914 3.89515 21.769 4.13611 20.3872C4.18318 20.4152 4.26612 20.4662 4.32518 20.5002L10.6974 24.1801C10.8562 24.273 11.0369 24.3219 11.2208 24.3219C11.4048 24.3219 11.5855 24.273 11.7443 24.1801L19.5236 19.6882V22.7981C19.5243 22.814 19.5213 22.8298 19.5147 22.8443C19.5081 22.8587 19.4981 22.8714 19.4856 22.8812L13.0444 26.6001C10.1754 28.2521 6.51125 27.2701 4.85213 24.4052H4.8512ZM3.17408 10.4962C3.87382 9.2809 4.97864 8.35032 6.29524 7.8673C6.29524 7.92223 6.29217 8.0193 6.29217 8.0873V15.4482C6.2912 15.632 6.33913 15.8128 6.43104 15.972C6.52296 16.1312 6.65556 16.2631 6.81526 16.3542L14.5944 20.8452L11.9014 22.4002C11.8881 22.409 11.8728 22.4144 11.8569 22.4158C11.841 22.4172 11.825 22.4146 11.8103 22.4082L5.36815 18.6862C2.50513 17.0282 1.5231 13.3653 3.17315 10.4973L3.17408 10.4962ZM25.3007 15.6453L17.5216 11.1533L20.2146 9.59929C20.2279 9.59044 20.2432 9.58506 20.2591 9.58366C20.275 9.58227 20.291 9.58489 20.3056 9.59129L26.7478 13.3102C29.6159 14.9673 30.5989 18.6362 28.9419 21.5042C28.2411 22.718 27.1371 23.6478 25.8218 24.1321V16.5513C25.8232 16.3677 25.7758 16.1871 25.6845 16.0279C25.5931 15.8687 25.461 15.7366 25.3018 15.6453H25.3007ZM27.9808 11.6113C27.9183 11.5728 27.8553 11.5351 27.7919 11.4982L21.4197 7.81823C21.2608 7.72541 21.0801 7.6765 20.8961 7.6765C20.7121 7.6765 20.5314 7.72541 20.3726 7.81823L12.5934 12.3102V9.20023C12.5927 9.18438 12.5958 9.16858 12.6024 9.15415C12.609 9.13973 12.6189 9.12709 12.6314 9.11729L19.0725 5.40132C21.9417 3.74626 25.6098 4.73132 27.2638 7.6013C27.9629 8.81355 28.2158 10.2321 27.9788 11.6113H27.9808ZM11.1294 17.1542L8.4353 15.5993C8.42113 15.5923 8.40893 15.5818 8.39985 15.5689C8.39076 15.556 8.38507 15.541 8.3833 15.5253V8.08623C8.3853 4.77425 11.0723 2.09027 14.3844 2.09227C15.7854 2.09276 17.1419 2.58385 18.2185 3.48026C18.1696 3.50626 18.0856 3.55333 18.0296 3.58733L11.6574 7.2673C11.4974 7.35807 11.3644 7.48987 11.2723 7.64913C11.1802 7.80839 11.1322 7.98933 11.1334 8.1733L11.1294 17.1522V17.1542ZM12.5924 14.0002L16.0575 11.9993L19.5226 13.9993V18.0002L16.0575 20.0002L12.5924 18.0002V14.0002Z" fill="#B6C4D7"/>
</svg>
