<svg width="158" height="88" viewBox="0 0 158 88" fill="none" xmlns="http://www.w3.org/2000/svg">
<g clip-path="url(#clip0_1515_8830)">
<rect x="-557" y="-3421" width="1440" height="11533" rx="16" fill="white"/>
<path d="M31.1841 66.5744H28V33.2292C30.5322 32.4269 33.1898 32.0006 35.8725 31.9756C37.6024 31.9505 39.3324 32.2514 40.962 32.8531C42.4162 33.3796 43.7701 34.2069 44.8983 35.285C46.0014 36.338 46.8539 37.5916 47.4054 39.0207C48.0072 40.4999 48.283 42.1045 48.283 43.7091C48.283 45.765 47.9319 47.52 47.2299 48.9992C46.5781 50.4032 45.6254 51.6317 44.447 52.6346C43.2937 53.5873 41.9649 54.2893 40.5107 54.7155C39.0566 55.1668 37.5272 55.3925 35.9979 55.3925C35.1705 55.3925 34.3682 55.3423 33.5659 55.217C32.7636 55.0916 31.9613 54.9161 31.1841 54.7155V66.5744ZM44.6476 43.6339C44.6476 40.9763 43.8954 38.8201 42.4162 37.1654C40.937 35.5357 38.8309 34.7084 36.1483 34.7084C35.2958 34.7084 34.4685 34.7585 33.616 34.8588C32.7887 34.9591 31.9613 35.1597 31.1841 35.4355V51.7069C31.9362 51.9577 32.6884 52.1582 33.4656 52.3337C34.2178 52.5092 34.9699 52.5845 35.7471 52.5845C38.4799 52.5845 40.6361 51.8072 42.2407 50.2528C43.8453 48.7234 44.6476 46.5171 44.6476 43.6339Z" fill="black"/>
<path d="M54.7012 55.1669V23H57.9103V55.1418H54.7012V55.1669Z" fill="black"/>
<path d="M84.2106 51.8073C83.1827 52.9356 81.904 53.8381 80.5 54.4399C79.096 55.0416 77.3911 55.3424 75.4105 55.3424C73.7557 55.3675 72.101 55.0667 70.5716 54.3897C69.2428 53.8131 68.0645 52.9356 67.1368 51.8324C66.2092 50.7543 65.5072 49.5008 65.0809 48.1469C64.6046 46.7429 64.3789 45.2636 64.3789 43.7844C64.3288 42.0043 64.6297 40.1992 65.2063 38.5194C65.6827 37.1404 66.4599 35.8869 67.4627 34.8088C68.3904 33.8561 69.5186 33.1039 70.7722 32.6275C72.0509 32.1512 73.4047 31.9255 74.7586 31.9255C78.1182 31.9255 80.6755 32.9535 82.3804 35.0344C84.0852 37.0903 84.9126 40.0989 84.8625 44.0602H67.6382C67.7385 46.6677 68.4907 48.7235 69.8947 50.2529C71.2987 51.7823 73.2292 52.5595 75.6361 52.5595C76.8897 52.5846 78.1433 52.3589 79.3216 51.8826C80.4749 51.4062 81.4778 50.6791 82.3052 49.7515L84.2106 51.8073ZM81.6282 41.3775C81.6282 40.475 81.4778 39.5724 81.202 38.72C80.9262 37.9427 80.5251 37.2157 79.9735 36.6139C79.3968 35.9871 78.6698 35.5108 77.8925 35.2099C75.962 34.5079 73.8309 34.5079 71.9004 35.2099C71.1483 35.5108 70.4463 35.9621 69.8947 36.5638C69.3431 37.1906 68.8918 37.8926 68.5408 38.6447C68.1146 39.4972 67.8639 40.4248 67.7385 41.3775H81.6282Z" fill="black"/>
<path d="M105.897 37.6167C105.195 36.6891 104.318 35.9369 103.29 35.3854C102.262 34.8839 101.109 34.6332 99.9805 34.6834C98.3509 34.6834 97.1976 34.9842 96.5457 35.5609C95.8939 36.1124 95.5429 36.9147 95.5679 37.7672C95.5429 38.3188 95.7184 38.8703 96.0192 39.3216C96.3451 39.7729 96.7463 40.149 97.2227 40.4248C97.7742 40.7507 98.3509 41.0265 98.9526 41.2271C99.6045 41.4527 100.281 41.6784 101.008 41.904C101.886 42.1798 102.738 42.4806 103.616 42.8066C104.468 43.1074 105.271 43.5337 105.998 44.0602C106.7 44.5616 107.301 45.2135 107.753 45.9656C108.229 46.818 108.455 47.7958 108.43 48.7987C108.455 49.7765 108.204 50.7292 107.753 51.6067C107.301 52.4341 106.675 53.1361 105.923 53.6877C105.095 54.2894 104.167 54.7156 103.19 54.9663C100.482 55.6683 97.5987 55.5179 94.9913 54.515C93.4619 53.8381 92.083 52.8102 91.0049 51.5566L93.512 49.3503C95.1918 51.5064 97.348 52.5594 100.006 52.5594C101.736 52.5594 103.014 52.2335 103.867 51.5816C104.694 50.9298 105.12 50.1526 105.12 49.25C105.145 48.6232 104.995 48.0215 104.669 47.4699C104.343 46.9685 103.917 46.5673 103.415 46.2414C102.839 45.8904 102.237 45.5895 101.585 45.389C100.883 45.1633 100.156 44.9377 99.4039 44.712C98.5264 44.4613 97.6739 44.1855 96.8215 43.8847C96.0192 43.6089 95.242 43.2077 94.54 42.7063C93.8631 42.2299 93.2864 41.6031 92.8853 40.9011C92.434 40.0487 92.2083 39.0709 92.2334 38.0931C92.2334 36.0623 92.9605 34.5079 94.4397 33.4047C95.9189 32.3016 97.8244 31.75 100.181 31.75C101.71 31.7249 103.215 32.0258 104.619 32.6024C105.923 33.154 107.151 34.1318 108.354 35.5107L105.998 37.6669L105.897 37.6167Z" fill="black"/>
<path d="M114.422 55.1668V23.05H117.631V55.1668H114.422ZM117.656 43.3079L128.688 32.1761H133L121.693 43.2076L132.95 55.1417H128.487L117.656 43.3079Z" fill="black"/>
<path d="M65.8831 66.5744H46.5278V63.5408H65.8831V66.5744Z" fill="#53BCE6"/>
<path d="M31.1841 66.5744H28V33.2292C30.5322 32.4269 33.1898 32.0006 35.8725 31.9756C37.6024 31.9505 39.3324 32.2514 40.962 32.8531C42.4162 33.3796 43.7701 34.2069 44.8983 35.285C46.0014 36.338 46.8539 37.5916 47.4054 39.0207C48.0072 40.4999 48.283 42.1045 48.283 43.7091C48.283 45.765 47.9319 47.52 47.2299 48.9992C46.5781 50.4032 45.6254 51.6317 44.447 52.6346C43.2937 53.5873 41.9649 54.2893 40.5107 54.7155C39.0566 55.1668 37.5272 55.3925 35.9979 55.3925C35.1705 55.3925 34.3682 55.3423 33.5659 55.217C32.7636 55.0916 31.9613 54.9161 31.1841 54.7155V66.5744ZM44.6476 43.6339C44.6476 40.9763 43.8954 38.8201 42.4162 37.1654C40.937 35.5357 38.8309 34.7084 36.1483 34.7084C35.2958 34.7084 34.4685 34.7585 33.616 34.8588C32.7887 34.9591 31.9613 35.1597 31.1841 35.4355V51.7069C31.9362 51.9577 32.6884 52.1582 33.4656 52.3337C34.2178 52.5092 34.9699 52.5845 35.7471 52.5845C38.4799 52.5845 40.6361 51.8072 42.2407 50.2528C43.8453 48.7234 44.6476 46.5171 44.6476 43.6339Z" fill="black"/>
<path d="M54.7012 55.1669V23H57.9103V55.1418H54.7012V55.1669Z" fill="black"/>
<path d="M84.2106 51.8073C83.1827 52.9356 81.904 53.8381 80.5 54.4399C79.096 55.0416 77.3911 55.3424 75.4105 55.3424C73.7557 55.3675 72.101 55.0667 70.5716 54.3897C69.2428 53.8131 68.0645 52.9356 67.1368 51.8324C66.2092 50.7543 65.5072 49.5008 65.0809 48.1469C64.6046 46.7429 64.3789 45.2636 64.3789 43.7844C64.3288 42.0043 64.6297 40.1992 65.2063 38.5194C65.6827 37.1404 66.4599 35.8869 67.4627 34.8088C68.3904 33.8561 69.5186 33.1039 70.7722 32.6275C72.0509 32.1512 73.4047 31.9255 74.7586 31.9255C78.1182 31.9255 80.6755 32.9535 82.3804 35.0344C84.0852 37.0903 84.9126 40.0989 84.8625 44.0602H67.6382C67.7385 46.6677 68.4907 48.7235 69.8947 50.2529C71.2987 51.7823 73.2292 52.5595 75.6361 52.5595C76.8897 52.5846 78.1433 52.3589 79.3216 51.8826C80.4749 51.4062 81.4778 50.6791 82.3052 49.7515L84.2106 51.8073ZM81.6282 41.3775C81.6282 40.475 81.4778 39.5724 81.202 38.72C80.9262 37.9427 80.5251 37.2157 79.9735 36.6139C79.3968 35.9871 78.6698 35.5108 77.8925 35.2099C75.962 34.5079 73.8309 34.5079 71.9004 35.2099C71.1483 35.5108 70.4463 35.9621 69.8947 36.5638C69.3431 37.1906 68.8918 37.8926 68.5408 38.6447C68.1146 39.4972 67.8639 40.4248 67.7385 41.3775H81.6282Z" fill="black"/>
<path d="M105.897 37.6167C105.195 36.6891 104.318 35.9369 103.29 35.3854C102.262 34.8839 101.109 34.6332 99.9805 34.6834C98.3509 34.6834 97.1976 34.9842 96.5457 35.5609C95.8939 36.1124 95.5429 36.9147 95.5679 37.7672C95.5429 38.3188 95.7184 38.8703 96.0192 39.3216C96.3451 39.7729 96.7463 40.149 97.2227 40.4248C97.7742 40.7507 98.3509 41.0265 98.9526 41.2271C99.6045 41.4527 100.281 41.6784 101.008 41.904C101.886 42.1798 102.738 42.4806 103.616 42.8066C104.468 43.1074 105.271 43.5337 105.998 44.0602C106.7 44.5616 107.301 45.2135 107.753 45.9656C108.229 46.818 108.455 47.7958 108.43 48.7987C108.455 49.7765 108.204 50.7292 107.753 51.6067C107.301 52.4341 106.675 53.1361 105.923 53.6877C105.095 54.2894 104.167 54.7156 103.19 54.9663C100.482 55.6683 97.5987 55.5179 94.9913 54.515C93.4619 53.8381 92.083 52.8102 91.0049 51.5566L93.512 49.3503C95.1918 51.5064 97.348 52.5594 100.006 52.5594C101.736 52.5594 103.014 52.2335 103.867 51.5816C104.694 50.9298 105.12 50.1526 105.12 49.25C105.145 48.6232 104.995 48.0215 104.669 47.4699C104.343 46.9685 103.917 46.5673 103.415 46.2414C102.839 45.8904 102.237 45.5895 101.585 45.389C100.883 45.1633 100.156 44.9377 99.4039 44.712C98.5264 44.4613 97.6739 44.1855 96.8215 43.8847C96.0192 43.6089 95.242 43.2077 94.54 42.7063C93.8631 42.2299 93.2864 41.6031 92.8853 40.9011C92.434 40.0487 92.2083 39.0709 92.2334 38.0931C92.2334 36.0623 92.9605 34.5079 94.4397 33.4047C95.9189 32.3016 97.8244 31.75 100.181 31.75C101.71 31.7249 103.215 32.0258 104.619 32.6024C105.923 33.154 107.151 34.1318 108.354 35.5107L105.998 37.6669L105.897 37.6167Z" fill="black"/>
<path d="M114.422 55.1668V23.05H117.631V55.1668H114.422ZM117.656 43.3079L128.688 32.1761H133L121.693 43.2076L132.95 55.1417H128.487L117.656 43.3079Z" fill="black"/>
<path d="M65.8831 66.5744H46.5278V63.5408H65.8831V66.5744Z" fill="#53BCE6"/>
</g>
<defs>
<clipPath id="clip0_1515_8830">
<rect x="-557" y="-3421" width="1440" height="11533" rx="16" fill="white"/>
</clipPath>
</defs>
</svg>
