<svg width="227" height="75" viewBox="0 0 227 75" fill="none" xmlns="http://www.w3.org/2000/svg">
<g clip-path="url(#clip0_1515_8830)">
<rect x="-720" y="-3428" width="1440" height="11533" rx="16" fill="white"/>
<path d="M34.143 32L22.713 20.572L16.999 26.286L22.715 32L17.001 37.714L22.716 43.429L34.146 31.999L34.143 32Z" fill="url(#paint0_linear_1515_8830)"/>
<path d="M51.2848 32L31.2848 12L25.5708 17.714L39.8568 32L25.5708 46.286L31.2858 52L51.2848 32Z" fill="url(#paint1_linear_1515_8830)"/>
<path d="M59.1489 44.1979H59.7549L61.0419 49.6349L62.9339 44.1979H63.3719L65.3149 49.5159L66.6289 44.1979H67.2139L65.6589 50.3819H65.0389L63.1549 45.1119L61.3019 50.3819H60.6589L59.1489 44.1979ZM71.9889 46.8709H75.9539C75.9339 45.4309 75.3079 44.7109 74.0809 44.7109C72.7529 44.7109 72.0559 45.4309 71.9879 46.8609M74.0779 44.1809C75.7079 44.1809 76.5279 45.1109 76.5279 46.9909C76.5279 47.1209 76.5179 47.2609 76.5079 47.4109H71.9879C71.9879 49.0309 72.8079 49.8309 74.4579 49.8309C75.1279 49.8309 75.7379 49.7309 76.2579 49.5309V50.0609C75.7279 50.2609 75.1279 50.3509 74.4479 50.3509C72.3979 50.3509 71.3679 49.2909 71.3679 47.1809C71.3679 45.1709 72.2579 44.1609 74.0579 44.1609M81.8479 49.6209C82.4579 49.7309 83.0079 49.7909 83.4979 49.7909C85.0479 49.7909 85.8279 48.8909 85.8279 47.0909C85.8279 45.5309 85.1079 44.7509 83.6879 44.7509C83.1379 44.7509 82.5279 44.8509 81.8479 45.0609V49.6209ZM81.2479 41.9209H81.8479V44.4509C82.5579 44.2509 83.1779 44.1509 83.6979 44.1509C85.5079 44.1509 86.4179 45.1409 86.4179 47.1209C86.4179 49.2609 85.4679 50.3309 83.5579 50.3309C82.6979 50.3309 81.9279 50.2509 81.2579 50.0809L81.2479 41.9209ZM101.528 50.1609C101.038 50.2709 100.508 50.3309 99.9379 50.3309C97.9279 50.3309 96.9279 49.2609 96.9279 47.1209C96.9279 45.1409 97.9279 44.1469 99.9379 44.1469C100.498 44.1469 101.038 44.2069 101.528 44.3239V44.8539C100.998 44.7339 100.488 44.6739 99.9879 44.6739C98.3779 44.6739 97.5779 45.4879 97.5779 47.1139C97.5779 48.9039 98.3779 49.7939 99.9879 49.7939C100.478 49.7939 100.988 49.7339 101.518 49.6239L101.528 50.1609ZM108.638 49.8609C110.098 49.8609 110.828 48.9809 110.828 47.2109C110.828 45.4809 110.098 44.6159 108.638 44.6159C107.178 44.6159 106.448 45.4789 106.448 47.2109C106.448 48.9809 107.178 49.8609 108.638 49.8609ZM105.848 47.2409C105.848 45.1409 106.778 44.0909 108.638 44.0909C110.498 44.0909 111.418 45.1409 111.418 47.2409C111.418 49.3309 110.488 50.3809 108.628 50.3809C106.778 50.3809 105.848 49.3309 105.838 47.2309M116.158 50.3249V44.1449H116.588L116.668 44.9349C117.428 44.4049 118.168 44.1449 118.908 44.1449C120.358 44.1449 121.078 44.7949 121.078 46.0949V50.3249H120.482V46.1249C120.482 45.2049 119.942 44.7449 118.872 44.7449C118.152 44.7449 117.452 45.0079 116.762 45.5289V50.3759L116.158 50.3249ZM126.078 43.1349H126.498L126.608 44.1349H128.398V44.6649H126.658V48.5649C126.658 49.3779 126.94 49.7849 127.518 49.7849H128.393V50.3149H127.533C126.563 50.3149 126.078 49.7599 126.078 48.6479V43.1349ZM132.871 50.3179V44.1379H133.296L133.366 45.1579C133.966 44.4779 134.633 44.1379 135.366 44.1379V44.6319C134.656 44.6319 134.022 44.9919 133.466 45.7119V50.3219L132.871 50.3179ZM142.191 49.8479C143.651 49.8479 144.378 48.9619 144.378 47.1979C144.378 45.4679 143.655 44.6029 142.198 44.6029C140.738 44.6029 140.018 45.4629 140.018 47.1949C140.018 48.9599 140.748 49.8409 142.208 49.8409M139.424 47.2209C139.424 45.1209 140.354 44.0709 142.206 44.0709C144.058 44.0709 144.989 45.1209 144.989 47.2209C144.989 49.3209 144.059 50.3709 142.204 50.3709C140.354 50.3709 139.424 49.3209 139.419 47.2209M150.441 50.3109H149.841V41.9109H150.438L150.441 50.3109ZM162.234 49.4069C162.838 49.6229 163.394 49.7269 163.9 49.7269C165.44 49.7269 166.21 48.8419 166.21 47.0619C166.21 45.4819 165.44 44.6919 163.91 44.6919C163.38 44.6919 162.817 44.7419 162.23 44.8419L162.234 49.4069ZM161.634 44.3869C162.318 44.2219 163.078 44.1369 163.924 44.1369C165.838 44.1369 166.794 45.1169 166.794 47.0769C166.794 49.2369 165.834 50.3209 163.904 50.3209C163.429 50.3209 162.871 50.2209 162.234 50.0209V52.5509H161.634V44.3869ZM173.599 47.3119C172.419 47.3119 171.832 47.7449 171.832 48.6079C171.832 49.4339 172.328 49.8459 173.312 49.8459C174.042 49.8459 174.73 49.6459 175.387 49.2459V47.4319C174.755 47.3539 174.16 47.3139 173.603 47.3139M171.24 48.6279C171.24 47.3979 172.03 46.7849 173.61 46.7849C174.17 46.7849 174.76 46.8229 175.4 46.9019V46.1419C175.4 45.1959 174.83 44.7219 173.68 44.7219C173.03 44.7219 172.38 44.8199 171.74 45.0169V44.4869C172.39 44.2889 173.03 44.1909 173.69 44.1909C175.24 44.1909 176.01 44.8309 176.01 46.1109V50.3709H175.65L175.52 49.7509C174.78 50.1609 174.05 50.3609 173.35 50.3609C171.97 50.3609 171.28 49.7709 171.28 48.6109M181.06 50.3609V44.1809H181.49L181.57 44.9709C182.33 44.4409 183.08 44.1809 183.81 44.1809C185.26 44.1809 185.99 44.8309 185.99 46.1309V50.3609H185.4V46.1109C185.4 45.1909 184.86 44.7309 183.79 44.7309C183.074 44.7309 182.37 44.9909 181.676 45.5109V50.3609H181.06ZM191.32 46.8509H195.29C195.26 45.4109 194.64 44.6909 193.42 44.6909C192.09 44.6909 191.4 45.4109 191.33 46.8409M193.43 44.1609C195.065 44.1609 195.88 45.1009 195.88 46.9709C195.88 47.1009 195.876 47.2409 195.87 47.3909H191.34C191.34 49.0109 192.165 49.8209 193.82 49.8209C194.5 49.8209 195.1 49.7209 195.625 49.5209V50.0509C195.099 50.2409 194.498 50.3409 193.818 50.3409C191.768 50.3409 190.741 49.2809 190.741 47.1809C190.741 45.1609 191.639 44.1509 193.431 44.1509M201.339 50.3309H200.739V41.9309H201.339V50.3309Z" fill="#444142"/>
<path d="M69.7538 35.814V29.134C69.7538 28.35 69.4458 27.808 68.8288 27.508C68.2119 27.208 67.2788 27.058 66.0288 27.058H63.1318V37.742H65.9068C67.3668 37.742 68.3728 37.627 68.9268 37.402C69.4768 37.177 69.7528 36.647 69.7528 35.812M73.5498 29.208V35.814C73.5498 37.649 72.9998 38.892 71.8998 39.544C70.7998 40.194 68.8598 40.519 66.0798 40.519H59.3398V24.279H66.0598C68.7398 24.279 70.6598 24.622 71.8198 25.305C72.9798 25.99 73.5598 27.291 73.5598 29.208M80.2098 40.518H76.6498V28.408H80.1998L80.2098 40.518ZM80.2098 26.982H76.6498V24.032H80.1998L80.2098 26.982ZM91.2198 31.187H89.9998C89.0298 31.187 88.2898 31.342 87.7998 31.65C87.3098 31.96 87.0598 32.49 87.0598 33.24V40.52H83.4988V28.412H86.8828V30.54C86.8998 29.94 87.2358 29.393 87.8928 28.9C88.5528 28.41 89.2358 28.163 89.9508 28.163H91.2178L91.2198 31.187ZM100.74 33.364V31.612C100.74 31.228 100.59 30.932 100.29 30.724C99.9898 30.516 99.4498 30.412 98.6698 30.412C97.8098 30.412 97.2298 30.516 96.9298 30.724C96.6298 30.934 96.4798 31.229 96.4798 31.612V33.362L100.74 33.364ZM104.13 35.441H96.4898V36.541C96.4898 37.221 96.7298 37.721 97.1998 38.031C97.6698 38.331 98.5598 38.491 99.8598 38.491C101.03 38.491 102.34 38.311 103.8 37.961V40.281C102.31 40.591 100.77 40.751 99.1798 40.751C95.0098 40.751 92.9298 39.441 92.9298 36.821V32.471C92.9298 30.921 93.4198 29.811 94.3898 29.141C95.3598 28.471 96.8098 28.141 98.7498 28.141C100.57 28.141 101.92 28.451 102.815 29.091C103.709 29.721 104.155 30.851 104.155 32.471L104.13 35.441ZM116.67 40.341C115.24 40.621 113.91 40.761 112.68 40.761C112.08 40.761 111.6 40.751 111.25 40.731C110.89 40.711 110.44 40.661 109.9 40.591C109.36 40.511 108.92 40.381 108.59 40.201C108.26 40.011 107.93 39.781 107.59 39.491C107.26 39.201 107.01 38.801 106.85 38.311C106.69 37.811 106.61 37.231 106.61 36.571V32.541C106.61 31.941 106.68 31.411 106.816 30.951C106.956 30.491 107.126 30.111 107.326 29.801C107.531 29.491 107.816 29.231 108.18 29.011C108.55 28.791 108.88 28.631 109.19 28.521C109.5 28.411 109.9 28.321 110.4 28.261C110.9 28.191 111.31 28.151 111.64 28.141C111.97 28.131 112.41 28.121 112.94 28.121C113.83 28.121 115.03 28.271 116.52 28.571V30.971C114.835 30.571 113.55 30.371 112.676 30.371C111.036 30.371 110.216 30.941 110.216 32.071V36.531C110.216 37.811 111.116 38.461 112.916 38.461C113.766 38.461 115.024 38.271 116.696 37.911L116.67 40.341ZM126.6 40.641C125.92 40.721 125.27 40.761 124.63 40.761C124.08 40.761 123.6 40.731 123.18 40.691C122.77 40.651 122.34 40.551 121.89 40.391C121.45 40.231 121.08 40.021 120.8 39.761C120.52 39.501 120.28 39.131 120.1 38.661C119.92 38.181 119.82 37.621 119.82 36.971V30.641H117.43V28.391H119.82V24.891H123.38V28.391H126.599V30.641H123.359V36.341C123.359 37.171 123.479 37.741 123.722 38.031C123.962 38.321 124.502 38.471 125.326 38.471C125.601 38.471 126.023 38.431 126.592 38.341L126.6 40.641Z" fill="#5C5B5F"/>
<path d="M139.109 33.6369L137.113 27.5329H137.017L135.022 33.6429L139.109 33.6369ZM145.196 40.5169H141.349L139.937 36.2389H134.167L132.779 40.5189H129.031L134.874 24.2789H139.499L145.196 40.5169ZM155.006 36.8899V32.0099C155.006 31.4099 154.849 30.9939 154.531 30.7599C154.214 30.5269 153.538 30.4099 152.499 30.4099C151.412 30.4099 150.739 30.5179 150.479 30.7339C150.219 30.9519 150.089 31.4189 150.089 32.1359V36.7659C150.089 37.4329 150.219 37.8859 150.477 38.1289C150.735 38.3719 151.345 38.4919 152.302 38.4919C153.454 38.4919 154.192 38.3879 154.518 38.1799C154.838 37.9719 154.998 37.5419 154.998 36.8899M158.548 40.5199H155.108V39.1419C154.828 39.5919 154.578 39.9219 154.348 40.1299C154.118 40.3379 153.778 40.4969 153.318 40.6049C152.858 40.7149 152.208 40.7689 151.368 40.7689C149.358 40.7689 148.038 40.5089 147.418 39.9929C146.798 39.4829 146.488 38.3329 146.488 36.5429V31.8129C146.488 30.4529 146.858 29.5029 147.618 28.9629C148.368 28.4329 149.558 28.1629 151.178 28.1629C152.348 28.1629 153.168 28.2729 153.638 28.5029C154.108 28.7329 154.548 29.1529 154.958 29.7729V23.0129H158.508L158.548 40.5199ZM179.938 40.5199H176.388V32.1379C176.388 31.4049 176.298 30.9339 176.128 30.7249C175.958 30.5169 175.488 30.4129 174.728 30.4129C173.748 30.4129 173.158 30.5229 172.938 30.7329C172.718 30.9429 172.608 31.4129 172.608 32.1529V40.5329H169.048V32.1529C169.048 31.4229 168.958 30.9529 168.788 30.7429C168.618 30.5429 168.148 30.4329 167.388 30.4329C166.408 30.4329 165.818 30.5429 165.598 30.7529C165.378 30.9629 165.268 31.4329 165.268 32.1729V40.5529H161.708V28.4119H165.258V29.8879C165.478 28.7379 166.648 28.1619 168.738 28.1619C169.858 28.1619 170.698 28.3119 171.258 28.6119C171.818 28.9119 172.198 29.3619 172.388 29.9619C172.578 29.3459 172.948 28.8919 173.498 28.5999C174.038 28.3079 174.898 28.1619 176.058 28.1619C177.598 28.1619 178.628 28.4419 179.138 28.9999C179.648 29.5599 179.908 30.4399 179.908 31.6399L179.938 40.5199ZM186.778 40.5199H183.218V28.4099H186.768L186.778 40.5199ZM186.778 26.9839H183.218V24.0319H186.768L186.778 26.9839ZM201.428 40.5199H197.878V32.1119C197.878 31.4449 197.768 30.9949 197.548 30.7619C197.328 30.5279 196.798 30.4119 195.978 30.4119C194.958 30.4119 194.308 30.5219 194.028 30.7489C193.748 30.9729 193.618 31.4289 193.618 32.1119V40.5189H190.058V28.4089H193.558V29.8849C193.828 28.7349 195.088 28.1589 197.328 28.1589C198.888 28.1589 199.958 28.4459 200.538 29.0219C201.118 29.5979 201.408 30.4689 201.408 31.6359L201.428 40.5199Z" fill="#737277"/>
<path d="M34.143 32L22.713 20.572L16.999 26.286L22.715 32L17.001 37.714L22.716 43.429L34.146 31.999L34.143 32Z" fill="url(#paint2_linear_1515_8830)"/>
<path d="M51.2848 32L31.2848 12L25.5708 17.714L39.8568 32L25.5708 46.286L31.2858 52L51.2848 32Z" fill="url(#paint3_linear_1515_8830)"/>
<path d="M59.1489 44.1979H59.7549L61.0419 49.6349L62.9339 44.1979H63.3719L65.3149 49.5159L66.6289 44.1979H67.2139L65.6589 50.3819H65.0389L63.1549 45.1119L61.3019 50.3819H60.6589L59.1489 44.1979ZM71.9889 46.8709H75.9539C75.9339 45.4309 75.3079 44.7109 74.0809 44.7109C72.7529 44.7109 72.0559 45.4309 71.9879 46.8609M74.0779 44.1809C75.7079 44.1809 76.5279 45.1109 76.5279 46.9909C76.5279 47.1209 76.5179 47.2609 76.5079 47.4109H71.9879C71.9879 49.0309 72.8079 49.8309 74.4579 49.8309C75.1279 49.8309 75.7379 49.7309 76.2579 49.5309V50.0609C75.7279 50.2609 75.1279 50.3509 74.4479 50.3509C72.3979 50.3509 71.3679 49.2909 71.3679 47.1809C71.3679 45.1709 72.2579 44.1609 74.0579 44.1609M81.8479 49.6209C82.4579 49.7309 83.0079 49.7909 83.4979 49.7909C85.0479 49.7909 85.8279 48.8909 85.8279 47.0909C85.8279 45.5309 85.1079 44.7509 83.6879 44.7509C83.1379 44.7509 82.5279 44.8509 81.8479 45.0609V49.6209ZM81.2479 41.9209H81.8479V44.4509C82.5579 44.2509 83.1779 44.1509 83.6979 44.1509C85.5079 44.1509 86.4179 45.1409 86.4179 47.1209C86.4179 49.2609 85.4679 50.3309 83.5579 50.3309C82.6979 50.3309 81.9279 50.2509 81.2579 50.0809L81.2479 41.9209ZM101.528 50.1609C101.038 50.2709 100.508 50.3309 99.9379 50.3309C97.9279 50.3309 96.9279 49.2609 96.9279 47.1209C96.9279 45.1409 97.9279 44.1469 99.9379 44.1469C100.498 44.1469 101.038 44.2069 101.528 44.3239V44.8539C100.998 44.7339 100.488 44.6739 99.9879 44.6739C98.3779 44.6739 97.5779 45.4879 97.5779 47.1139C97.5779 48.9039 98.3779 49.7939 99.9879 49.7939C100.478 49.7939 100.988 49.7339 101.518 49.6239L101.528 50.1609ZM108.638 49.8609C110.098 49.8609 110.828 48.9809 110.828 47.2109C110.828 45.4809 110.098 44.6159 108.638 44.6159C107.178 44.6159 106.448 45.4789 106.448 47.2109C106.448 48.9809 107.178 49.8609 108.638 49.8609ZM105.848 47.2409C105.848 45.1409 106.778 44.0909 108.638 44.0909C110.498 44.0909 111.418 45.1409 111.418 47.2409C111.418 49.3309 110.488 50.3809 108.628 50.3809C106.778 50.3809 105.848 49.3309 105.838 47.2309M116.158 50.3249V44.1449H116.588L116.668 44.9349C117.428 44.4049 118.168 44.1449 118.908 44.1449C120.358 44.1449 121.078 44.7949 121.078 46.0949V50.3249H120.482V46.1249C120.482 45.2049 119.942 44.7449 118.872 44.7449C118.152 44.7449 117.452 45.0079 116.762 45.5289V50.3759L116.158 50.3249ZM126.078 43.1349H126.498L126.608 44.1349H128.398V44.6649H126.658V48.5649C126.658 49.3779 126.94 49.7849 127.518 49.7849H128.393V50.3149H127.533C126.563 50.3149 126.078 49.7599 126.078 48.6479V43.1349ZM132.871 50.3179V44.1379H133.296L133.366 45.1579C133.966 44.4779 134.633 44.1379 135.366 44.1379V44.6319C134.656 44.6319 134.022 44.9919 133.466 45.7119V50.3219L132.871 50.3179ZM142.191 49.8479C143.651 49.8479 144.378 48.9619 144.378 47.1979C144.378 45.4679 143.655 44.6029 142.198 44.6029C140.738 44.6029 140.018 45.4629 140.018 47.1949C140.018 48.9599 140.748 49.8409 142.208 49.8409M139.424 47.2209C139.424 45.1209 140.354 44.0709 142.206 44.0709C144.058 44.0709 144.989 45.1209 144.989 47.2209C144.989 49.3209 144.059 50.3709 142.204 50.3709C140.354 50.3709 139.424 49.3209 139.419 47.2209M150.441 50.3109H149.841V41.9109H150.438L150.441 50.3109ZM162.234 49.4069C162.838 49.6229 163.394 49.7269 163.9 49.7269C165.44 49.7269 166.21 48.8419 166.21 47.0619C166.21 45.4819 165.44 44.6919 163.91 44.6919C163.38 44.6919 162.817 44.7419 162.23 44.8419L162.234 49.4069ZM161.634 44.3869C162.318 44.2219 163.078 44.1369 163.924 44.1369C165.838 44.1369 166.794 45.1169 166.794 47.0769C166.794 49.2369 165.834 50.3209 163.904 50.3209C163.429 50.3209 162.871 50.2209 162.234 50.0209V52.5509H161.634V44.3869ZM173.599 47.3119C172.419 47.3119 171.832 47.7449 171.832 48.6079C171.832 49.4339 172.328 49.8459 173.312 49.8459C174.042 49.8459 174.73 49.6459 175.387 49.2459V47.4319C174.755 47.3539 174.16 47.3139 173.603 47.3139M171.24 48.6279C171.24 47.3979 172.03 46.7849 173.61 46.7849C174.17 46.7849 174.76 46.8229 175.4 46.9019V46.1419C175.4 45.1959 174.83 44.7219 173.68 44.7219C173.03 44.7219 172.38 44.8199 171.74 45.0169V44.4869C172.39 44.2889 173.03 44.1909 173.69 44.1909C175.24 44.1909 176.01 44.8309 176.01 46.1109V50.3709H175.65L175.52 49.7509C174.78 50.1609 174.05 50.3609 173.35 50.3609C171.97 50.3609 171.28 49.7709 171.28 48.6109M181.06 50.3609V44.1809H181.49L181.57 44.9709C182.33 44.4409 183.08 44.1809 183.81 44.1809C185.26 44.1809 185.99 44.8309 185.99 46.1309V50.3609H185.4V46.1109C185.4 45.1909 184.86 44.7309 183.79 44.7309C183.074 44.7309 182.37 44.9909 181.676 45.5109V50.3609H181.06ZM191.32 46.8509H195.29C195.26 45.4109 194.64 44.6909 193.42 44.6909C192.09 44.6909 191.4 45.4109 191.33 46.8409M193.43 44.1609C195.065 44.1609 195.88 45.1009 195.88 46.9709C195.88 47.1009 195.876 47.2409 195.87 47.3909H191.34C191.34 49.0109 192.165 49.8209 193.82 49.8209C194.5 49.8209 195.1 49.7209 195.625 49.5209V50.0509C195.099 50.2409 194.498 50.3409 193.818 50.3409C191.768 50.3409 190.741 49.2809 190.741 47.1809C190.741 45.1609 191.639 44.1509 193.431 44.1509M201.339 50.3309H200.739V41.9309H201.339V50.3309Z" fill="#444142"/>
<path d="M69.7538 35.814V29.134C69.7538 28.35 69.4458 27.808 68.8288 27.508C68.2119 27.208 67.2788 27.058 66.0288 27.058H63.1318V37.742H65.9068C67.3668 37.742 68.3728 37.627 68.9268 37.402C69.4768 37.177 69.7528 36.647 69.7528 35.812M73.5498 29.208V35.814C73.5498 37.649 72.9998 38.892 71.8998 39.544C70.7998 40.194 68.8598 40.519 66.0798 40.519H59.3398V24.279H66.0598C68.7398 24.279 70.6598 24.622 71.8198 25.305C72.9798 25.99 73.5598 27.291 73.5598 29.208M80.2098 40.518H76.6498V28.408H80.1998L80.2098 40.518ZM80.2098 26.982H76.6498V24.032H80.1998L80.2098 26.982ZM91.2198 31.187H89.9998C89.0298 31.187 88.2898 31.342 87.7998 31.65C87.3098 31.96 87.0598 32.49 87.0598 33.24V40.52H83.4988V28.412H86.8828V30.54C86.8998 29.94 87.2358 29.393 87.8928 28.9C88.5528 28.41 89.2358 28.163 89.9508 28.163H91.2178L91.2198 31.187ZM100.74 33.364V31.612C100.74 31.228 100.59 30.932 100.29 30.724C99.9898 30.516 99.4498 30.412 98.6698 30.412C97.8098 30.412 97.2298 30.516 96.9298 30.724C96.6298 30.934 96.4798 31.229 96.4798 31.612V33.362L100.74 33.364ZM104.13 35.441H96.4898V36.541C96.4898 37.221 96.7298 37.721 97.1998 38.031C97.6698 38.331 98.5598 38.491 99.8598 38.491C101.03 38.491 102.34 38.311 103.8 37.961V40.281C102.31 40.591 100.77 40.751 99.1798 40.751C95.0098 40.751 92.9298 39.441 92.9298 36.821V32.471C92.9298 30.921 93.4198 29.811 94.3898 29.141C95.3598 28.471 96.8098 28.141 98.7498 28.141C100.57 28.141 101.92 28.451 102.815 29.091C103.709 29.721 104.155 30.851 104.155 32.471L104.13 35.441ZM116.67 40.341C115.24 40.621 113.91 40.761 112.68 40.761C112.08 40.761 111.6 40.751 111.25 40.731C110.89 40.711 110.44 40.661 109.9 40.591C109.36 40.511 108.92 40.381 108.59 40.201C108.26 40.011 107.93 39.781 107.59 39.491C107.26 39.201 107.01 38.801 106.85 38.311C106.69 37.811 106.61 37.231 106.61 36.571V32.541C106.61 31.941 106.68 31.411 106.816 30.951C106.956 30.491 107.126 30.111 107.326 29.801C107.531 29.491 107.816 29.231 108.18 29.011C108.55 28.791 108.88 28.631 109.19 28.521C109.5 28.411 109.9 28.321 110.4 28.261C110.9 28.191 111.31 28.151 111.64 28.141C111.97 28.131 112.41 28.121 112.94 28.121C113.83 28.121 115.03 28.271 116.52 28.571V30.971C114.835 30.571 113.55 30.371 112.676 30.371C111.036 30.371 110.216 30.941 110.216 32.071V36.531C110.216 37.811 111.116 38.461 112.916 38.461C113.766 38.461 115.024 38.271 116.696 37.911L116.67 40.341ZM126.6 40.641C125.92 40.721 125.27 40.761 124.63 40.761C124.08 40.761 123.6 40.731 123.18 40.691C122.77 40.651 122.34 40.551 121.89 40.391C121.45 40.231 121.08 40.021 120.8 39.761C120.52 39.501 120.28 39.131 120.1 38.661C119.92 38.181 119.82 37.621 119.82 36.971V30.641H117.43V28.391H119.82V24.891H123.38V28.391H126.599V30.641H123.359V36.341C123.359 37.171 123.479 37.741 123.722 38.031C123.962 38.321 124.502 38.471 125.326 38.471C125.601 38.471 126.023 38.431 126.592 38.341L126.6 40.641Z" fill="#5C5B5F"/>
<path d="M139.109 33.6369L137.113 27.5329H137.017L135.022 33.6429L139.109 33.6369ZM145.196 40.5169H141.349L139.937 36.2389H134.167L132.779 40.5189H129.031L134.874 24.2789H139.499L145.196 40.5169ZM155.006 36.8899V32.0099C155.006 31.4099 154.849 30.9939 154.531 30.7599C154.214 30.5269 153.538 30.4099 152.499 30.4099C151.412 30.4099 150.739 30.5179 150.479 30.7339C150.219 30.9519 150.089 31.4189 150.089 32.1359V36.7659C150.089 37.4329 150.219 37.8859 150.477 38.1289C150.735 38.3719 151.345 38.4919 152.302 38.4919C153.454 38.4919 154.192 38.3879 154.518 38.1799C154.838 37.9719 154.998 37.5419 154.998 36.8899M158.548 40.5199H155.108V39.1419C154.828 39.5919 154.578 39.9219 154.348 40.1299C154.118 40.3379 153.778 40.4969 153.318 40.6049C152.858 40.7149 152.208 40.7689 151.368 40.7689C149.358 40.7689 148.038 40.5089 147.418 39.9929C146.798 39.4829 146.488 38.3329 146.488 36.5429V31.8129C146.488 30.4529 146.858 29.5029 147.618 28.9629C148.368 28.4329 149.558 28.1629 151.178 28.1629C152.348 28.1629 153.168 28.2729 153.638 28.5029C154.108 28.7329 154.548 29.1529 154.958 29.7729V23.0129H158.508L158.548 40.5199ZM179.938 40.5199H176.388V32.1379C176.388 31.4049 176.298 30.9339 176.128 30.7249C175.958 30.5169 175.488 30.4129 174.728 30.4129C173.748 30.4129 173.158 30.5229 172.938 30.7329C172.718 30.9429 172.608 31.4129 172.608 32.1529V40.5329H169.048V32.1529C169.048 31.4229 168.958 30.9529 168.788 30.7429C168.618 30.5429 168.148 30.4329 167.388 30.4329C166.408 30.4329 165.818 30.5429 165.598 30.7529C165.378 30.9629 165.268 31.4329 165.268 32.1729V40.5529H161.708V28.4119H165.258V29.8879C165.478 28.7379 166.648 28.1619 168.738 28.1619C169.858 28.1619 170.698 28.3119 171.258 28.6119C171.818 28.9119 172.198 29.3619 172.388 29.9619C172.578 29.3459 172.948 28.8919 173.498 28.5999C174.038 28.3079 174.898 28.1619 176.058 28.1619C177.598 28.1619 178.628 28.4419 179.138 28.9999C179.648 29.5599 179.908 30.4399 179.908 31.6399L179.938 40.5199ZM186.778 40.5199H183.218V28.4099H186.768L186.778 40.5199ZM186.778 26.9839H183.218V24.0319H186.768L186.778 26.9839ZM201.428 40.5199H197.878V32.1119C197.878 31.4449 197.768 30.9949 197.548 30.7619C197.328 30.5279 196.798 30.4119 195.978 30.4119C194.958 30.4119 194.308 30.5219 194.028 30.7489C193.748 30.9729 193.618 31.4289 193.618 32.1119V40.5189H190.058V28.4089H193.558V29.8849C193.828 28.7349 195.088 28.1589 197.328 28.1589C198.888 28.1589 199.958 28.4459 200.538 29.0219C201.118 29.5979 201.408 30.4689 201.408 31.6359L201.428 40.5199Z" fill="#737277"/>
</g>
<defs>
<linearGradient id="paint0_linear_1515_8830" x1="25.571" y1="20.572" x2="25.571" y2="43.4291" gradientUnits="userSpaceOnUse">
<stop stop-color="#009CDE"/>
<stop offset="0.5" stop-color="#00577D"/>
<stop offset="1" stop-color="#00314A"/>
</linearGradient>
<linearGradient id="paint1_linear_1515_8830" x1="38.4288" y1="12" x2="38.4288" y2="52.0002" gradientUnits="userSpaceOnUse">
<stop stop-color="#8DD0F1"/>
<stop offset="0.5" stop-color="#0088C2"/>
<stop offset="1" stop-color="#003A56"/>
</linearGradient>
<linearGradient id="paint2_linear_1515_8830" x1="25.571" y1="20.572" x2="25.571" y2="43.4291" gradientUnits="userSpaceOnUse">
<stop stop-color="#009CDE"/>
<stop offset="0.5" stop-color="#00577D"/>
<stop offset="1" stop-color="#00314A"/>
</linearGradient>
<linearGradient id="paint3_linear_1515_8830" x1="38.4288" y1="12" x2="38.4288" y2="52.0002" gradientUnits="userSpaceOnUse">
<stop stop-color="#8DD0F1"/>
<stop offset="0.5" stop-color="#0088C2"/>
<stop offset="1" stop-color="#003A56"/>
</linearGradient>
<clipPath id="clip0_1515_8830">
<rect x="-720" y="-3428" width="1440" height="11533" rx="16" fill="white"/>
</clipPath>
</defs>
</svg>
