<svg width="155" height="35" viewBox="0 0 155 35" fill="none" xmlns="http://www.w3.org/2000/svg">
<path d="M12.7505 8.40073H22.3905L20.9005 14.1207C20.6902 14.8702 20.2407 15.5303 19.6205 16.0007C18.9996 16.4797 18.2345 16.7335 17.4505 16.7207H13.0005C12.0211 16.7041 11.0653 17.0215 10.2905 17.6207C9.4987 18.2352 8.92407 19.0866 8.65047 20.0507C8.45387 20.7614 8.42987 21.5088 8.58047 22.2307C8.73088 22.8843 9.01333 23.5002 9.41047 24.0407C9.81659 24.5769 10.3445 25.0088 10.9505 25.3007C11.5876 25.6157 12.2898 25.7767 13.0005 25.7707H15.7005C16.1961 25.761 16.6657 25.9921 16.9605 26.3907C17.2755 26.7767 17.3768 27.2945 17.2305 27.7707L15.5305 34.0907H12.5305C10.565 34.1102 8.62477 33.6467 6.88047 32.7407C5.21247 31.8962 3.75107 30.6943 2.60047 29.2207C1.46447 27.7476 0.671768 26.0393 0.280468 24.2207C-0.138802 22.2936 -0.0873519 20.2937 0.430468 18.3907L0.600468 17.7007C0.960418 16.3572 1.54171 15.0831 2.32047 13.9307C3.08637 12.8132 4.02467 11.8242 5.10047 11.0007C6.17587 10.1755 7.37827 9.53043 8.66047 9.09073C9.97467 8.62972 11.3578 8.39638 12.7505 8.40073ZM17.6205 34.1307L26.0005 2.64073C26.2108 1.87789 26.668 1.20623 27.3005 0.730731C27.9207 0.242391 28.6912 -0.0156089 29.4805 0.000731088H38.3905C40.3412 -0.0113429 42.2659 0.448381 44.0005 1.34073C47.416 3.07613 49.8692 6.25653 50.6805 10.0007C51.1025 11.9252 51.0441 13.9241 50.5105 15.8207L50.3405 16.4607C49.9817 17.806 49.404 19.083 48.6305 20.2407C47.8834 21.3839 46.9545 22.3972 45.8805 23.2407C43.685 24.932 40.9919 25.8496 38.2205 25.8507H30.5005L32.0005 20.0007C32.2081 19.2526 32.654 18.5926 33.2705 18.1207C33.8946 17.6396 34.6625 17.3824 35.4505 17.3907H38.0005C40.0479 17.3862 41.8293 15.9883 42.3205 14.0007C42.5146 13.32 42.5353 12.6015 42.3805 11.9107C42.2345 11.2556 41.9516 10.6388 41.5505 10.1007C41.131 9.57612 40.602 9.14951 40.0005 8.85073C39.3815 8.53257 38.6964 8.36471 38.0005 8.36073H33.1905L27.0005 31.5207C26.7856 32.268 26.337 32.9268 25.7205 33.4007C25.1148 33.8804 24.3631 34.138 23.5905 34.1307H17.6205ZM70.8105 17.3207L70.9405 16.8507C71.0041 16.6512 70.9627 16.4331 70.8305 16.2707C70.7067 16.1017 70.51 16.0015 70.3005 16.0007H56.4405C54.7794 16.0077 53.3422 14.8463 53.0005 13.2207C52.8758 12.6744 52.8758 12.107 53.0005 11.5607L53.8605 8.32073H72.6505C73.7617 8.30474 74.859 8.56959 75.8405 9.09073C76.7797 9.57412 77.6022 10.2566 78.2505 11.0907C78.8985 11.9273 79.3528 12.8973 79.5805 13.9307C79.8205 15.0206 79.7965 16.152 79.5105 17.2307L76.1405 29.7807C75.4681 32.333 73.1498 34.1037 70.5105 34.0807L56.6505 34.0007C54.344 34.0181 52.1632 32.9517 50.7605 31.1207C50.0969 30.2301 49.633 29.2068 49.4005 28.1207C49.1405 26.9852 49.168 25.8029 49.4805 24.6807L49.6505 24.0407C49.8546 23.2491 50.1928 22.4982 50.6505 21.8207C51.1074 21.1562 51.664 20.5659 52.3005 20.0707C52.9357 19.6051 53.6413 19.2439 54.3905 19.0007C55.1719 18.7306 55.9937 18.5953 56.8205 18.6007H68.4605L67.6105 21.8007C67.3969 22.5486 66.948 23.2078 66.3305 23.6807C65.7223 24.1546 64.9715 24.4084 64.2005 24.4007H59.0005C58.5503 24.3733 58.1507 24.6869 58.0705 25.1307C57.9775 25.418 58.042 25.7331 58.2405 25.9607C58.423 26.1937 58.7046 26.3271 59.0005 26.3207H67.4005C67.6917 26.325 67.9762 26.2337 68.2105 26.0607C68.436 25.8979 68.5901 25.6543 68.6405 25.3807L68.7205 25.0407L70.8105 17.3207ZM95.6405 8.40073C97.6191 8.37833 99.5729 8.84189 101.33 9.75073C103.006 10.6056 104.471 11.8214 105.62 13.3107C106.767 14.8072 107.56 16.544 107.94 18.3907C108.356 20.3235 108.291 22.329 107.75 24.2307L105.62 32.2307C105.491 32.7814 105.163 33.2653 104.7 33.5907C104.255 33.9301 103.71 34.113 103.15 34.1107H98.5405C97.4855 34.131 96.7113 33.1255 97.0005 32.1107L99.5605 22.4307C99.7579 21.7508 99.782 21.0323 99.6305 20.3407C99.4829 19.6843 99.1965 19.0671 98.7905 18.5307C97.9377 17.4144 96.6153 16.7568 95.2105 16.7507H90.4305L86.3005 32.2507C86.1665 32.7996 85.84 33.2821 85.3805 33.6107C84.9195 33.9566 84.3567 34.1395 83.7805 34.1307H79.2105C78.732 34.126 78.2837 33.8963 78.0005 33.5107C77.6768 33.1252 77.5713 32.6015 77.7205 32.1207L84.0005 8.40073H95.6405ZM120.76 16.5307C120.428 16.7871 120.178 17.1346 120.04 17.5307L118.12 24.7807C118.003 25.1627 118.081 25.5781 118.33 25.8907C118.562 26.2118 118.934 26.4016 119.33 26.4007H137L135.63 31.4707C135.42 32.2199 134.97 32.8798 134.35 33.3507C133.746 33.8318 132.993 34.0896 132.22 34.0807H116.16C115.049 34.0949 113.95 33.8375 112.96 33.3307C112.019 32.8512 111.195 32.168 110.55 31.3307C109.91 30.4823 109.456 29.5074 109.22 28.4707C108.983 27.3887 109.02 26.2643 109.33 25.2007L111.93 15.5207C112.211 14.4872 112.66 13.5072 113.26 12.6207C114.422 10.8809 116.122 9.57043 118.1 8.89073C119.105 8.53141 120.164 8.34871 121.23 8.35073H132.62C133.734 8.33943 134.834 8.60396 135.82 9.12073C136.76 9.60439 137.582 10.2869 138.23 11.1207C138.881 11.956 139.326 12.9321 139.53 13.9707C139.759 15.0588 139.732 16.185 139.45 17.2607L138.68 20.1607C138.369 21.3991 137.637 22.4912 136.61 23.2507C135.603 24.0286 134.363 24.4443 133.09 24.4307H120.21L121.06 21.2707C121.247 20.5211 121.685 19.8577 122.3 19.3907C122.921 18.9118 123.686 18.6579 124.47 18.6707H129.68C130.132 18.6944 130.532 18.3836 130.62 17.9407L130.79 17.3007C130.944 16.6823 130.487 16.0802 129.85 16.0607H121.92C121.491 16.0762 121.08 16.2426 120.76 16.5307ZM137 34.1307L145.58 1.92073C145.715 1.36655 146.036 0.875631 146.49 0.530731C146.951 0.183321 147.513 -0.00290891 148.09 0.000731088H152.66C153.168 -0.0119679 153.651 0.218401 153.96 0.620731C154.272 1.00876 154.366 1.52807 154.21 2.00073L147.81 25.7707C147.507 26.9875 146.993 28.1417 146.29 29.1807C145.617 30.1838 144.782 31.069 143.82 31.8007C142.859 32.537 141.785 33.1143 140.64 33.5107C139.471 33.921 138.24 34.1306 137 34.1307Z" fill="#F26C32"/>
<path d="M12.7505 8.40073H22.3905L20.9005 14.1207C20.6902 14.8702 20.2407 15.5303 19.6205 16.0007C18.9996 16.4797 18.2345 16.7335 17.4505 16.7207H13.0005C12.0211 16.7041 11.0653 17.0215 10.2905 17.6207C9.4987 18.2352 8.92407 19.0866 8.65047 20.0507C8.45387 20.7614 8.42987 21.5088 8.58047 22.2307C8.73088 22.8843 9.01333 23.5002 9.41047 24.0407C9.81659 24.5769 10.3445 25.0088 10.9505 25.3007C11.5876 25.6157 12.2898 25.7767 13.0005 25.7707H15.7005C16.1961 25.761 16.6657 25.9921 16.9605 26.3907C17.2755 26.7767 17.3768 27.2945 17.2305 27.7707L15.5305 34.0907H12.5305C10.565 34.1102 8.62477 33.6467 6.88047 32.7407C5.21247 31.8962 3.75107 30.6943 2.60047 29.2207C1.46447 27.7476 0.671768 26.0393 0.280468 24.2207C-0.138802 22.2936 -0.0873519 20.2937 0.430468 18.3907L0.600468 17.7007C0.960418 16.3572 1.54171 15.0831 2.32047 13.9307C3.08637 12.8132 4.02467 11.8242 5.10047 11.0007C6.17587 10.1755 7.37827 9.53043 8.66047 9.09073C9.97467 8.62972 11.3578 8.39638 12.7505 8.40073ZM17.6205 34.1307L26.0005 2.64073C26.2108 1.87789 26.668 1.20623 27.3005 0.730731C27.9207 0.242391 28.6912 -0.0156089 29.4805 0.000731088H38.3905C40.3412 -0.0113429 42.2659 0.448381 44.0005 1.34073C47.416 3.07613 49.8692 6.25653 50.6805 10.0007C51.1025 11.9252 51.0441 13.9241 50.5105 15.8207L50.3405 16.4607C49.9817 17.806 49.404 19.083 48.6305 20.2407C47.8834 21.3839 46.9545 22.3972 45.8805 23.2407C43.685 24.932 40.9919 25.8496 38.2205 25.8507H30.5005L32.0005 20.0007C32.2081 19.2526 32.654 18.5926 33.2705 18.1207C33.8946 17.6396 34.6625 17.3824 35.4505 17.3907H38.0005C40.0479 17.3862 41.8293 15.9883 42.3205 14.0007C42.5146 13.32 42.5353 12.6015 42.3805 11.9107C42.2345 11.2556 41.9516 10.6388 41.5505 10.1007C41.131 9.57612 40.602 9.14951 40.0005 8.85073C39.3815 8.53257 38.6964 8.36471 38.0005 8.36073H33.1905L27.0005 31.5207C26.7856 32.268 26.337 32.9268 25.7205 33.4007C25.1148 33.8804 24.3631 34.138 23.5905 34.1307H17.6205ZM70.8105 17.3207L70.9405 16.8507C71.0041 16.6512 70.9627 16.4331 70.8305 16.2707C70.7067 16.1017 70.51 16.0015 70.3005 16.0007H56.4405C54.7794 16.0077 53.3422 14.8463 53.0005 13.2207C52.8758 12.6744 52.8758 12.107 53.0005 11.5607L53.8605 8.32073H72.6505C73.7617 8.30474 74.859 8.56959 75.8405 9.09073C76.7797 9.57412 77.6022 10.2566 78.2505 11.0907C78.8985 11.9273 79.3528 12.8973 79.5805 13.9307C79.8205 15.0206 79.7965 16.152 79.5105 17.2307L76.1405 29.7807C75.4681 32.333 73.1498 34.1037 70.5105 34.0807L56.6505 34.0007C54.344 34.0181 52.1632 32.9517 50.7605 31.1207C50.0969 30.2301 49.633 29.2068 49.4005 28.1207C49.1405 26.9852 49.168 25.8029 49.4805 24.6807L49.6505 24.0407C49.8546 23.2491 50.1928 22.4982 50.6505 21.8207C51.1074 21.1562 51.664 20.5659 52.3005 20.0707C52.9357 19.6051 53.6413 19.2439 54.3905 19.0007C55.1719 18.7306 55.9937 18.5953 56.8205 18.6007H68.4605L67.6105 21.8007C67.3969 22.5486 66.948 23.2078 66.3305 23.6807C65.7223 24.1546 64.9715 24.4084 64.2005 24.4007H59.0005C58.5503 24.3733 58.1507 24.6869 58.0705 25.1307C57.9775 25.418 58.042 25.7331 58.2405 25.9607C58.423 26.1937 58.7046 26.3271 59.0005 26.3207H67.4005C67.6917 26.325 67.9762 26.2337 68.2105 26.0607C68.436 25.8979 68.5901 25.6543 68.6405 25.3807L68.7205 25.0407L70.8105 17.3207ZM95.6405 8.40073C97.6191 8.37833 99.5729 8.84189 101.33 9.75073C103.006 10.6056 104.471 11.8214 105.62 13.3107C106.767 14.8072 107.56 16.544 107.94 18.3907C108.356 20.3235 108.291 22.329 107.75 24.2307L105.62 32.2307C105.491 32.7814 105.163 33.2653 104.7 33.5907C104.255 33.9301 103.71 34.113 103.15 34.1107H98.5405C97.4855 34.131 96.7113 33.1255 97.0005 32.1107L99.5605 22.4307C99.7579 21.7508 99.782 21.0323 99.6305 20.3407C99.4829 19.6843 99.1965 19.0671 98.7905 18.5307C97.9377 17.4144 96.6153 16.7568 95.2105 16.7507H90.4305L86.3005 32.2507C86.1665 32.7996 85.84 33.2821 85.3805 33.6107C84.9195 33.9566 84.3567 34.1395 83.7805 34.1307H79.2105C78.732 34.126 78.2837 33.8963 78.0005 33.5107C77.6768 33.1252 77.5713 32.6015 77.7205 32.1207L84.0005 8.40073H95.6405ZM120.76 16.5307C120.428 16.7871 120.178 17.1346 120.04 17.5307L118.12 24.7807C118.003 25.1627 118.081 25.5781 118.33 25.8907C118.562 26.2118 118.934 26.4016 119.33 26.4007H137L135.63 31.4707C135.42 32.2199 134.97 32.8798 134.35 33.3507C133.746 33.8318 132.993 34.0896 132.22 34.0807H116.16C115.049 34.0949 113.95 33.8375 112.96 33.3307C112.019 32.8512 111.195 32.168 110.55 31.3307C109.91 30.4823 109.456 29.5074 109.22 28.4707C108.983 27.3887 109.02 26.2643 109.33 25.2007L111.93 15.5207C112.211 14.4872 112.66 13.5072 113.26 12.6207C114.422 10.8809 116.122 9.57043 118.1 8.89073C119.105 8.53141 120.164 8.34871 121.23 8.35073H132.62C133.734 8.33943 134.834 8.60396 135.82 9.12073C136.76 9.60439 137.582 10.2869 138.23 11.1207C138.881 11.956 139.326 12.9321 139.53 13.9707C139.759 15.0588 139.732 16.185 139.45 17.2607L138.68 20.1607C138.369 21.3991 137.637 22.4912 136.61 23.2507C135.603 24.0286 134.363 24.4443 133.09 24.4307H120.21L121.06 21.2707C121.247 20.5211 121.685 19.8577 122.3 19.3907C122.921 18.9118 123.686 18.6579 124.47 18.6707H129.68C130.132 18.6944 130.532 18.3836 130.62 17.9407L130.79 17.3007C130.944 16.6823 130.487 16.0802 129.85 16.0607H121.92C121.491 16.0762 121.08 16.2426 120.76 16.5307ZM137 34.1307L145.58 1.92073C145.715 1.36655 146.036 0.875631 146.49 0.530731C146.951 0.183321 147.513 -0.00290891 148.09 0.000731088H152.66C153.168 -0.0119679 153.651 0.218401 153.96 0.620731C154.272 1.00876 154.366 1.52807 154.21 2.00073L147.81 25.7707C147.507 26.9875 146.993 28.1417 146.29 29.1807C145.617 30.1838 144.782 31.069 143.82 31.8007C142.859 32.537 141.785 33.1143 140.64 33.5107C139.471 33.921 138.24 34.1306 137 34.1307Z" fill="#F26C32"/>
</svg>
