<svg width="20" height="20" viewBox="0 0 20 20" fill="none" xmlns="http://www.w3.org/2000/svg">
<g clip-path="url(#clip0_2629_5921)">
<path d="M20 2.5C20 1.83696 19.7366 1.20107 19.2678 0.732233C18.7989 0.263392 18.163 0 17.5 0L2.5 0C1.83696 0 1.20107 0.263392 0.732233 0.732233C0.263392 1.20107 0 1.83696 0 2.5L0 5C0.00216972 5.617 0.233873 6.21111 0.65 6.66667C0.233873 7.12222 0.00216972 7.71633 0 8.33333L0 10.8333C0.00216972 11.4503 0.233873 12.0444 0.65 12.5C0.233873 12.9556 0.00216972 13.5497 0 14.1667L0 19.1667H20V14.1667C19.9978 13.5497 19.7661 12.9556 19.35 12.5C19.7661 12.0444 19.9978 11.4503 20 10.8333V8.33333C19.9978 7.71633 19.7661 7.12222 19.35 6.66667C19.7661 6.21111 19.9978 5.617 20 5V2.5ZM1.66667 2.5C1.66667 2.27899 1.75446 2.06702 1.91074 1.91074C2.06702 1.75446 2.27899 1.66667 2.5 1.66667H4.16667V3.33333H5.83333V1.66667H7.5V3.33333H9.16667V1.66667H17.5C17.721 1.66667 17.933 1.75446 18.0893 1.91074C18.2455 2.06702 18.3333 2.27899 18.3333 2.5V5C18.3333 5.22101 18.2455 5.43297 18.0893 5.58925C17.933 5.74553 17.721 5.83333 17.5 5.83333H2.5C2.27899 5.83333 2.06702 5.74553 1.91074 5.58925C1.75446 5.43297 1.66667 5.22101 1.66667 5V2.5ZM18.3333 8.33333V10.8333C18.3333 11.0543 18.2455 11.2663 18.0893 11.4226C17.933 11.5789 17.721 11.6667 17.5 11.6667H2.5C2.27899 11.6667 2.06702 11.5789 1.91074 11.4226C1.75446 11.2663 1.66667 11.0543 1.66667 10.8333V8.33333C1.66667 8.11232 1.75446 7.90036 1.91074 7.74408C2.06702 7.5878 2.27899 7.5 2.5 7.5H4.16667V9.16667H5.83333V7.5H7.5V9.16667H9.16667V7.5H17.5C17.721 7.5 17.933 7.5878 18.0893 7.74408C18.2455 7.90036 18.3333 8.11232 18.3333 8.33333ZM18.3333 17.5H1.66667V14.1667C1.66667 13.9457 1.75446 13.7337 1.91074 13.5774C2.06702 13.4211 2.27899 13.3333 2.5 13.3333H4.16667V15H5.83333V13.3333H7.5V15H9.16667V13.3333H17.5C17.721 13.3333 17.933 13.4211 18.0893 13.5774C18.2455 13.7337 18.3333 13.9457 18.3333 14.1667V17.5Z" fill="white"/>
</g>
<defs>
<clipPath id="clip0_2629_5921">
<rect width="20" height="20" fill="white"/>
</clipPath>
</defs>
</svg>
