<svg width="24" height="24" viewBox="0 0 24 24" fill="none" xmlns="http://www.w3.org/2000/svg">
<path d="M5 11H8C8.53043 11 9.03914 11.2107 9.41421 11.5858C9.78929 11.9609 10 12.4696 10 13V16C10 16.5304 9.78929 17.0391 9.41421 17.4142C9.03914 17.7893 8.53043 18 8 18H7C6.46957 18 5.96086 17.7893 5.58579 17.4142C5.21071 17.0391 5 16.5304 5 16V11ZM5 11C5 9.8181 5.23279 8.64778 5.68508 7.55585C6.13738 6.46392 6.80031 5.47177 7.63604 4.63604C8.47177 3.80031 9.46392 3.13738 10.5558 2.68508C11.6478 2.23279 12.8181 2 14 2C15.1819 2 16.3522 2.23279 17.4442 2.68508C18.5361 3.13738 19.5282 3.80031 20.364 4.63604C21.1997 5.47177 21.8626 6.46392 22.3149 7.55585C22.7672 8.64778 23 9.8181 23 11M23 11V16C23 16.5304 22.7893 17.0391 22.4142 17.4142C22.0391 17.7893 21.5304 18 21 18H20C19.4696 18 18.9609 17.7893 18.5858 17.4142C18.2107 17.0391 18 16.5304 18 16V13C18 12.4696 18.2107 11.9609 18.5858 11.5858C18.9609 11.2107 19.4696 11 20 11H23Z" stroke="white" stroke-width="2" stroke-linecap="round" stroke-linejoin="round"/>
<path d="M23 16V18C23 19.0609 22.5786 20.0783 21.8284 20.8284C21.0783 21.5786 20.0609 22 19 22H14" stroke="white" stroke-width="2" stroke-linecap="round" stroke-linejoin="round"/>
</svg>
