<svg width="22" height="22" viewBox="0 0 22 22" fill="none" xmlns="http://www.w3.org/2000/svg">
<path d="M18.3768 2.06299H3.87606C2.875 2.06299 2.06348 2.87451 2.06348 3.87558V7.50075C2.06348 8.50181 2.875 9.31334 3.87606 9.31334H18.3768C19.3778 9.31334 20.1894 8.50181 20.1894 7.50075V3.87558C20.1894 2.87451 19.3778 2.06299 18.3768 2.06299Z" stroke="white" stroke-width="1.81259" stroke-linecap="round" stroke-linejoin="round"/>
<path d="M18.3768 12.9385H3.87606C2.875 12.9385 2.06348 13.75 2.06348 14.7511V18.3762C2.06348 19.3773 2.875 20.1888 3.87606 20.1888H18.3768C19.3778 20.1888 20.1894 19.3773 20.1894 18.3762V14.7511C20.1894 13.75 19.3778 12.9385 18.3768 12.9385Z" stroke="white" stroke-width="1.81259" stroke-linecap="round" stroke-linejoin="round"/>
<path d="M5.68848 5.68811H5.69745" stroke="white" stroke-width="1.81259" stroke-linecap="round" stroke-linejoin="round"/>
<path d="M5.68848 16.5637H5.69745" stroke="white" stroke-width="1.81259" stroke-linecap="round" stroke-linejoin="round"/>
</svg>
