<svg width="12" height="11" viewBox="0 0 12 11" fill="none" xmlns="http://www.w3.org/2000/svg">
<path d="M11.5 5.49593C11.4962 5.05719 11.3296 4.63772 11.0364 4.32842L7.66571 0.742502C7.5185 0.587181 7.31936 0.5 7.11179 0.5C6.90421 0.5 6.70507 0.587181 6.55786 0.742502C6.48421 0.820027 6.42576 0.912261 6.38587 1.01388C6.34598 1.11551 6.32544 1.22451 6.32544 1.3346C6.32544 1.44468 6.34598 1.55368 6.38587 1.65531C6.42576 1.75693 6.48421 1.84916 6.55786 1.92669L9.14286 4.66199H1.28571C1.07733 4.66199 0.877481 4.74985 0.730131 4.90625C0.582781 5.06264 0.5 5.27475 0.5 5.49593C0.5 5.7171 0.582781 5.92921 0.730131 6.08561C0.877481 6.242 1.07733 6.32986 1.28571 6.32986H9.14286L6.55786 9.0735C6.4099 9.22943 6.32637 9.44135 6.32563 9.66265C6.3249 9.88394 6.40702 10.0965 6.55393 10.2535C6.70084 10.4106 6.90051 10.4992 7.10901 10.5C7.31751 10.5008 7.51776 10.4136 7.66571 10.2577L11.0364 6.67177C11.3315 6.36042 11.4982 5.93756 11.5 5.49593Z" fill="white"/>
</svg>
