<svg width="117" height="32" viewBox="0 0 117 32" fill="none" xmlns="http://www.w3.org/2000/svg">
<path d="M32.6003 21.7825C31.4057 21.7161 30.2446 21.3639 29.2145 20.7554C28.1844 20.1468 27.3154 19.2999 26.6808 18.2856C27.4464 12.183 29.6748 10.2861 32.6231 10.2861C35.5715 10.2861 37.8113 12.5717 37.8113 16C37.8113 19.4284 35.5257 21.714 32.6231 21.714M32.6231 6.46905C30.5424 6.38476 28.4983 7.03446 26.848 8.3046C25.1978 9.57473 24.0465 11.3845 23.5953 13.4175C22.6171 11.3679 21.8771 9.21301 21.3898 6.99489H14.1104V16.023C14.1104 19.3028 12.6248 21.7371 9.71078 21.7371C6.79677 21.7371 5.13985 19.3143 5.13985 16.023V6.99476H0.957276V16.0228C0.862361 18.5247 1.72465 20.9686 3.36853 22.8569C4.17095 23.7305 5.15112 24.4222 6.24313 24.8854C7.33513 25.3486 8.51366 25.5726 9.69945 25.5423C14.739 25.5423 18.27 21.6683 18.27 16.1258V10.0231C19.1259 13.307 20.5408 16.4189 22.4526 19.2227L20.2128 31.9992H24.4638L25.938 22.9482C26.426 23.3684 26.9456 23.7505 27.4922 24.0911C28.9123 24.988 30.5446 25.4927 32.2231 25.5538H32.6117C33.8604 25.5668 35.0987 25.327 36.2523 24.8488C37.4058 24.3707 38.4507 23.664 39.324 22.7715C40.1973 21.8789 40.881 20.8189 41.3339 19.6552C41.7868 18.4915 41.9996 17.2481 41.9595 16C41.9886 14.7565 41.7675 13.5199 41.3091 12.3635C40.8509 11.2071 40.1649 10.1547 39.2918 9.26875C38.4187 8.38282 37.3764 7.68149 36.2269 7.20648C35.0774 6.73141 33.844 6.49228 32.6003 6.50332M92.7323 8.98319V7.06329H88.6182V24.9253H92.7893V17.9314C92.7893 13.6229 93.1778 10.526 98.9603 10.926V6.8577C96.2633 6.65198 94.1607 7.21195 92.7323 8.99465M63.8318 7.05196L60.8149 19.5541L57.5924 7.05196H52.29L49.0674 19.5541L46.0506 7.05196H41.8337L46.4619 24.9368H51.4672L54.9411 12.2402L58.3808 24.9368H63.3861L68.2772 7.05196H63.8318ZM77.4421 21.794C74.4824 21.794 72.2654 19.4513 72.2654 16.08C72.2654 12.7087 74.5509 10.366 77.4421 10.366C80.3332 10.366 82.6759 12.5717 82.6759 16C82.6759 19.4284 80.3904 21.714 77.4878 21.714M77.4878 6.45772C75.604 6.43128 73.757 6.9803 72.1935 8.03142C70.63 9.08255 69.4244 10.5857 68.7378 12.3402C68.282 13.5049 68.067 14.7499 68.1057 16C68.0619 17.2544 68.2711 18.5047 68.7208 19.6765C69.1706 20.8482 69.8516 21.9174 70.7234 22.8203C71.5951 23.7233 72.6398 24.4414 73.7952 24.9319C74.9505 25.4223 76.1928 25.675 77.4479 25.6749C79.3385 25.6751 81.1847 25.1019 82.7428 24.031C84.3009 22.9601 85.4976 21.4417 86.1748 19.6765C86.6245 18.5047 86.8337 17.2544 86.7898 16C86.8205 14.7571 86.6008 13.5206 86.1438 12.3643C85.6868 11.2081 85.0018 10.1555 84.1297 9.26944C83.2575 8.38333 82.216 7.68179 81.0671 7.20657C79.9182 6.73136 78.6854 6.49219 77.4421 6.50332M104.925 16.1486H105.885L111.702 24.9368H116.399L109.714 15.1886C111.322 14.5257 112.696 13.3988 113.66 11.9516C114.625 10.5044 115.137 8.80258 115.13 7.06329H110.982C110.982 10.9146 107.942 12.3774 104.925 12.3774V0.000854492H100.754V24.9368H104.914L104.925 16.1486Z" fill="#B6C4D7"/>
</svg>
