<svg width="31" height="31" viewBox="0 0 31 31" fill="none" xmlns="http://www.w3.org/2000/svg">
<g clip-path="url(#clip0_1605_398)">
<path d="M23.9331 28.939H23.8927C23.2664 28.9292 22.6707 28.6632 22.2454 28.2036L19.8945 25.898C19.4238 25.4114 19.4348 24.6356 19.9214 24.1649C19.9227 24.1637 19.9239 24.1624 19.9251 24.1612C20.4117 23.6942 21.1839 23.7077 21.6533 24.1906L23.9344 26.4251L28.0294 22.33C28.5075 21.852 29.2846 21.852 29.7626 22.33C30.2406 22.808 30.2406 23.5851 29.7626 24.0632L25.5695 28.2563C25.138 28.6938 24.5484 28.9402 23.9331 28.939Z" fill="white"/>
<path d="M17.9074 25.2806C17.9025 21.2395 21.1739 17.9595 25.2138 17.9534C26.7864 17.9509 28.3185 18.4559 29.581 19.3936C31.7541 11.5675 27.1712 3.46195 19.3464 1.28879C11.5215 -0.88438 3.41716 3.69729 1.24399 11.5234C-0.929176 19.3495 3.65372 27.4563 11.4786 29.6294C14.0526 30.344 16.7724 30.344 19.3464 29.6294C18.4124 28.3718 17.9074 26.8471 17.9074 25.2806ZM16.6388 15.4836C16.6388 15.8097 16.5089 16.121 16.2784 16.3514L12.5952 20.0359C12.1074 20.5065 11.3303 20.4931 10.8596 20.0052C10.4 19.5296 10.4 18.7746 10.8596 18.299L14.1837 14.9749V9.34408C14.1837 8.66627 14.7328 8.11593 15.4119 8.11593C16.0897 8.11593 16.6388 8.66627 16.6388 9.34408V15.4836Z" fill="white"/>
</g>
<defs>
<clipPath id="clip0_1605_398">
<rect width="29.4168" height="29.4168" fill="white" transform="translate(0.705078 0.747864)"/>
</clipPath>
</defs>
</svg>
