<svg width="31" height="31" viewBox="0 0 31 31" fill="none" xmlns="http://www.w3.org/2000/svg">
<path d="M30.2708 9.32777V6.87637H27.8194C27.8194 4.84906 26.1696 3.19926 24.1423 3.19926V0.747864H21.6909V3.19926H19.2395V0.747864H16.7881V3.19926H14.3367V0.747864H11.8853V3.19926H9.43391V0.747864H6.98251V3.19926C4.9552 3.19926 3.3054 4.84906 3.3054 6.87637H0.854004V9.32777H3.3054V11.7792H0.854004V14.2306H3.3054V16.682H0.854004V19.1334H3.3054V21.5848H0.854004V24.0362H3.3054V27.7133H6.98251V30.1647H9.43391V27.7133H11.8853V30.1647H14.3367V27.7133H16.7881V30.1647H19.2395V27.7133H21.6909V30.1647H24.1423V27.7133H27.8194V24.0362H30.2708V21.5848H27.8194V19.1334H30.2708V16.682H27.8194V14.2306H30.2708V11.7792H27.8194V9.32777H30.2708ZM14.648 20.3591H10.4439L10.1595 21.5848H7.64316L10.0198 11.3355C10.3716 9.81927 12.0116 8.87426 13.6197 9.54839C14.3882 9.87075 14.9054 10.6098 15.093 11.4213L17.4488 21.5835H14.9324L14.648 20.3578V20.3591ZM19.2395 9.32777H21.6909V21.5848H19.2395V9.32777ZM12.6845 11.8895L14.0793 17.9077H11.0114L12.4062 11.8895C12.4209 11.8245 12.4785 11.7792 12.5447 11.7792C12.6109 11.7792 12.6685 11.8245 12.6832 11.8895H12.6845Z" fill="white"/>
</svg>
