<svg width="31" height="30" viewBox="0 0 31 30" fill="none" xmlns="http://www.w3.org/2000/svg">
<g clip-path="url(#clip0_1605_431)">
<path d="M23.9331 28.2786H23.8927C23.2664 28.2688 22.6707 28.0028 22.2454 27.5432L19.8945 25.2376C19.4238 24.751 19.4348 23.9752 19.9214 23.5045C19.9227 23.5033 19.9239 23.502 19.9251 23.5008C20.4117 23.0338 21.1839 23.0473 21.6533 23.5302L23.9344 25.7647L28.0294 21.6696C28.5075 21.1916 29.2846 21.1916 29.7626 21.6696C30.2406 22.1476 30.2406 22.9247 29.7626 23.4028L25.5695 27.5959C25.138 28.0334 24.5484 28.2798 23.9331 28.2786Z" fill="white"/>
<g clip-path="url(#clip1_1605_431)">
<path d="M19.0881 16.0489L23.3646 15.5635C24.0204 16.5735 25.1541 17.2464 26.4448 17.2464C28.4721 17.2464 30.1219 15.5966 30.1219 13.5693C30.1219 11.542 28.4721 9.89222 26.4448 9.89222C24.5572 9.89222 23.0153 11.3275 22.8094 13.1599L18.6089 13.6367C18.3319 12.9834 17.9298 12.4 17.4567 11.8852L20.6815 7.32805C20.9598 7.39547 21.2454 7.44082 21.5432 7.44082C23.5705 7.44082 25.2203 5.79102 25.2203 3.76372C25.2203 1.73641 23.5705 0.0866139 21.5432 0.0866139C19.5159 0.0866139 17.8661 1.73641 17.8661 3.76372C17.8661 4.60087 18.1578 5.36325 18.6309 5.98223L15.4748 10.4438C14.7063 10.0957 13.8605 9.89222 12.9633 9.89222C12.0747 9.89222 11.2363 10.0908 10.4727 10.4328L7.40721 5.84618C7.81659 5.25294 8.05928 4.53713 8.05928 3.76249C8.05928 1.73518 6.40949 0.0853882 4.38218 0.0853882C2.35487 0.0853882 0.705078 1.73641 0.705078 3.76372C0.705078 5.79102 2.35487 7.44082 4.38218 7.44082C4.74254 7.44082 5.08328 7.37218 5.41299 7.27535L8.48337 11.868C7.46849 12.9626 6.83481 14.4138 6.83481 16.0195C6.83481 17.4045 7.31405 18.6707 8.0936 19.6978L5.78683 22.4287C5.35416 22.2497 4.88104 22.148 4.3834 22.148C2.3561 22.148 0.706304 23.7978 0.706304 25.8251C0.706304 27.8524 2.3561 29.5022 4.3834 29.5022C6.41071 29.5022 8.06051 27.8524 8.06051 25.8251C8.06051 25.1902 7.88401 24.6018 7.59964 24.0809L9.93583 21.3157C10.833 21.8305 11.8577 22.148 12.9633 22.148C14.314 22.148 15.5532 21.6945 16.5669 20.9517L20.5749 24.4977C20.4143 24.9107 20.3175 25.3557 20.3175 25.8251C20.3175 27.8524 21.9673 29.5022 23.9946 29.5022C26.0219 29.5022 27.6717 27.8524 27.6717 25.8251C27.6717 23.7978 26.0219 22.148 23.9946 22.148C23.3327 22.148 22.7187 22.338 22.1818 22.6456L18.2118 19.134C18.7523 18.2258 19.0832 17.179 19.0881 16.0489Z" fill="white"/>
</g>
</g>
<defs>
<clipPath id="clip0_1605_431">
<rect width="29.4168" height="29.4168" fill="white" transform="translate(0.705078 0.0874634)"/>
</clipPath>
<clipPath id="clip1_1605_431">
<rect width="29.4168" height="29.4168" fill="white" transform="translate(0.705078 0.0874634)"/>
</clipPath>
</defs>
</svg>
