<svg width="30" height="32" viewBox="0 0 30 32" fill="none" xmlns="http://www.w3.org/2000/svg">
<path fill-rule="evenodd" clip-rule="evenodd" d="M25.3206 4.99764C22.5336 2.09201 18.8285 0.49055 14.8814 0.489258C6.74769 0.489258 0.127806 7.38367 0.124084 15.8602C0.122843 18.5693 0.802823 21.2139 2.09454 23.5456L0 31.5103L7.82225 29.3724C9.97759 30.5977 12.4047 31.2427 14.8739 31.244H14.8801C23.0126 31.244 29.6337 24.3483 29.6375 15.8718C29.6399 11.7654 28.1063 7.90198 25.3206 4.99764ZM14.8814 28.6473H14.8764C12.6752 28.6473 10.5174 28.0307 8.63376 26.8662L8.18582 26.5896L3.54384 27.8575L4.78344 23.1423L4.49184 22.6589C3.26341 20.6245 2.61569 18.2733 2.61693 15.8602C2.61941 8.81581 8.12254 3.08468 14.8876 3.08468C18.1634 3.08468 21.2432 4.416 23.5586 6.83047C25.874 9.24623 27.1483 12.4556 27.1471 15.8692C27.1434 22.9161 21.6415 28.6473 14.8814 28.6473ZM21.6092 19.0786C21.2407 18.886 19.4278 17.9567 19.0891 17.8287C18.7516 17.7007 18.5059 17.6361 18.259 18.02C18.012 18.4039 17.3072 19.2699 17.0913 19.5271C16.8767 19.783 16.6608 19.8153 16.2922 19.6227C15.9237 19.4302 14.735 19.0256 13.3266 17.7163C12.231 16.6977 11.4902 15.4401 11.2755 15.0549C11.0608 14.6697 11.2532 14.4629 11.4368 14.2716C11.6031 14.0997 11.8053 13.8231 11.9902 13.5982C12.1764 13.3759 12.2372 13.2156 12.3612 12.9584C12.4841 12.7025 12.4233 12.4776 12.3302 12.285C12.2372 12.0937 11.5001 10.2027 11.1936 9.43365C10.8946 8.68397 10.5906 8.78608 10.3635 8.77445C10.1488 8.76282 9.90314 8.76152 9.65621 8.76152C9.41053 8.76152 9.01098 8.85717 8.67347 9.24235C8.33596 9.62753 7.383 10.5569 7.383 12.4466C7.383 14.3375 8.70449 16.1639 8.88813 16.4198C9.07178 16.6758 11.4877 20.556 15.1866 22.2195C16.0664 22.615 16.7538 22.8515 17.2886 23.0286C18.1721 23.3207 18.9762 23.2793 19.6115 23.1811C20.32 23.0713 21.7929 22.2518 22.1006 21.3548C22.4083 20.4577 22.4083 19.6874 22.3153 19.5284C22.2234 19.3668 21.9778 19.2712 21.6092 19.0786Z" fill="black"/>
</svg>
