<svg width="31" height="32" viewBox="0 0 31 32" fill="none" xmlns="http://www.w3.org/2000/svg">
<g clip-path="url(#clip0_1515_5563)">
<path d="M27.125 31.3708L22.3936 28.1275L18.9526 30.4848L15.509 28.1262L12.0655 30.4822L8.61542 28.1236L3.875 31.3708V4.375C3.875 3.34729 4.28326 2.36166 5.00996 1.63496C5.73666 0.908258 6.72229 0.5 7.75 0.5L23.25 0.5C24.2777 0.5 25.2633 0.908258 25.99 1.63496C26.7167 2.36166 27.125 3.34729 27.125 4.375V31.3708ZM8.61542 24.9926L12.0642 27.3512L15.509 24.9926L18.9526 27.3512L22.3949 24.9913L24.5417 26.4625V4.375C24.5417 4.03243 24.4056 3.70389 24.1633 3.46165C23.9211 3.21942 23.5926 3.08333 23.25 3.08333H7.75C7.40743 3.08333 7.07889 3.21942 6.83665 3.46165C6.59442 3.70389 6.45833 4.03243 6.45833 4.375V26.4625L8.61542 24.9926Z" fill="black"/>
<path d="M21.9583 10.8335H9.04163V13.4168H21.9583V10.8335Z" fill="black"/>
<path d="M19.375 16H9.04163V18.5833H19.375V16Z" fill="black"/>
</g>
<defs>
<clipPath id="clip0_1515_5563">
<rect width="31" height="31" fill="white" transform="translate(0 0.5)"/>
</clipPath>
</defs>
</svg>
